# Tiled2Unity generated file. Do not modify by hand.
# Wavefront file for 'Luolanjatkumo1_mesh_0023.obj'

# Vertices (Count = 24)
v -480 -2240 0
v -512 -2240 0
v -512 -2208 0
v -480 -2208 0
v -544 -2304 0
v -576 -2304 0
v -576 -2272 0
v -544 -2272 0
v -352 -2336 0
v -384 -2336 0
v -384 -2304 0
v -352 -2304 0
v -384 -2336 0
v -416 -2336 0
v -416 -2304 0
v -384 -2304 0
v -416 -2336 0
v -448 -2336 0
v -448 -2304 0
v -416 -2304 0
v -448 -2336 0
v -480 -2336 0
v -480 -2304 0
v -448 -2304 0

# Texture cooridinates (Count = 18)
vt 0.7514677 0.4223827
vt 0.81409 0.4223827
vt 0.81409 0.4608905
vt 0.7514677 0.4608905
vt 0.8767123 0.345367
vt 0.9393346 0.345367
vt 0.9393346 0.3838748
vt 0.8767123 0.3838748
vt 0.6888454 0.07581228
vt 0.7514677 0.07581228
vt 0.7514677 0.1143201
vt 0.6888454 0.1143201
vt 0.81409 0.07581228
vt 0.81409 0.1143201
vt 0.8767123 0.07581228
vt 0.8767123 0.1143201
vt 0.9393346 0.07581228
vt 0.9393346 0.1143201

# Normal
vn 0 0 -1

# Mesh description
g Luolanjatkumo1_mesh_0023

# Faces
f 1/1/1 2/2/1 3/3/1 4/4/1
f 5/5/1 6/6/1 7/7/1 8/8/1
f 9/9/1 10/10/1 11/11/1 12/12/1
f 13/10/1 14/13/1 15/14/1 16/11/1
f 17/13/1 18/15/1 19/16/1 20/14/1
f 21/15/1 22/17/1 23/18/1 24/16/1

