# Tiled2Unity generated file. Do not modify by hand.
# Wavefront file for 'Luolanjatkumo1_mesh_0013.obj'

# Vertices (Count = 28)
v -1120 -1664 0
v -1152 -1664 0
v -1152 -1632 0
v -1120 -1632 0
v -1152 -1664 0
v -1184 -1664 0
v -1184 -1632 0
v -1152 -1632 0
v -1184 -1664 0
v -1216 -1664 0
v -1216 -1632 0
v -1184 -1632 0
v -1120 -1696 0
v -1152 -1696 0
v -1152 -1664 0
v -1120 -1664 0
v -1152 -1696 0
v -1184 -1696 0
v -1184 -1664 0
v -1152 -1664 0
v -1184 -1696 0
v -1216 -1696 0
v -1216 -1664 0
v -1184 -1664 0
v -2112 -2176 0
v -2144 -2176 0
v -2144 -2144 0
v -2112 -2144 0

# Texture cooridinates (Count = 16)
vt 0 0.2298436
vt 0.06262231 0.2298436
vt 0.06262231 0.2683514
vt 0 0.2683514
vt 0.1252446 0.2298436
vt 0.1252446 0.2683514
vt 0.1878669 0.2298436
vt 0.1878669 0.2683514
vt 0 0.1913357
vt 0.06262231 0.1913357
vt 0.1252446 0.1913357
vt 0.1878669 0.1913357
vt 0.6888454 0.6919374
vt 0.7514677 0.6919374
vt 0.7514677 0.7304453
vt 0.6888454 0.7304453

# Normal
vn 0 0 -1

# Mesh description
g Luolanjatkumo1_mesh_0013

# Faces
f 1/1/1 2/2/1 3/3/1 4/4/1
f 5/2/1 6/5/1 7/6/1 8/3/1
f 9/5/1 10/7/1 11/8/1 12/6/1
f 13/9/1 14/10/1 15/2/1 16/1/1
f 17/10/1 18/11/1 19/5/1 20/2/1
f 21/11/1 22/12/1 23/7/1 24/5/1
f 25/13/1 26/14/1 27/15/1 28/16/1

