# Tiled2Unity generated file. Do not modify by hand.
# Wavefront file for 'Luolanjatkumo1_mesh_0019.obj'

# Vertices (Count = 324)
v -2624 -1120 0
v -2656 -1120 0
v -2656 -1088 0
v -2624 -1088 0
v -2656 -1120 0
v -2688 -1120 0
v -2688 -1088 0
v -2656 -1088 0
v -2688 -1120 0
v -2720 -1120 0
v -2720 -1088 0
v -2688 -1088 0
v -2720 -1120 0
v -2752 -1120 0
v -2752 -1088 0
v -2720 -1088 0
v -2624 -1152 0
v -2656 -1152 0
v -2656 -1120 0
v -2624 -1120 0
v -2656 -1152 0
v -2688 -1152 0
v -2688 -1120 0
v -2656 -1120 0
v -2688 -1152 0
v -2720 -1152 0
v -2720 -1120 0
v -2688 -1120 0
v -2720 -1152 0
v -2752 -1152 0
v -2752 -1120 0
v -2720 -1120 0
v -1856 -1568 0
v -1888 -1568 0
v -1888 -1536 0
v -1856 -1536 0
v -1888 -1568 0
v -1920 -1568 0
v -1920 -1536 0
v -1888 -1536 0
v -1920 -1568 0
v -1952 -1568 0
v -1952 -1536 0
v -1920 -1536 0
v -1952 -1568 0
v -1984 -1568 0
v -1984 -1536 0
v -1952 -1536 0
v -1984 -1568 0
v -2016 -1568 0
v -2016 -1536 0
v -1984 -1536 0
v -2016 -1568 0
v -2048 -1568 0
v -2048 -1536 0
v -2016 -1536 0
v -2048 -1568 0
v -2080 -1568 0
v -2080 -1536 0
v -2048 -1536 0
v -2080 -1568 0
v -2112 -1568 0
v -2112 -1536 0
v -2080 -1536 0
v -224 -2304 0
v -256 -2304 0
v -256 -2272 0
v -224 -2272 0
v -256 -2304 0
v -288 -2304 0
v -288 -2272 0
v -256 -2272 0
v -288 -2304 0
v -320 -2304 0
v -320 -2272 0
v -288 -2272 0
v -320 -2304 0
v -352 -2304 0
v -352 -2272 0
v -320 -2272 0
v -352 -2304 0
v -384 -2304 0
v -384 -2272 0
v -352 -2272 0
v -384 -2304 0
v -416 -2304 0
v -416 -2272 0
v -384 -2272 0
v -416 -2304 0
v -448 -2304 0
v -448 -2272 0
v -416 -2272 0
v -448 -2304 0
v -480 -2304 0
v -480 -2272 0
v -448 -2272 0
v -224 -2336 0
v -256 -2336 0
v -256 -2304 0
v -224 -2304 0
v -256 -2336 0
v -288 -2336 0
v -288 -2304 0
v -256 -2304 0
v -288 -2336 0
v -320 -2336 0
v -320 -2304 0
v -288 -2304 0
v -576 -2496 0
v -608 -2496 0
v -608 -2464 0
v -576 -2464 0
v -608 -2496 0
v -640 -2496 0
v -640 -2464 0
v -608 -2464 0
v -608 -2528 0
v -640 -2528 0
v -640 -2496 0
v -608 -2496 0
v -448 -2560 0
v -480 -2560 0
v -480 -2528 0
v -448 -2528 0
v -544 -2560 0
v -576 -2560 0
v -576 -2528 0
v -544 -2528 0
v -576 -2560 0
v -608 -2560 0
v -608 -2528 0
v -576 -2528 0
v -512 -2592 0
v -544 -2592 0
v -544 -2560 0
v -512 -2560 0
v -544 -2592 0
v -576 -2592 0
v -576 -2560 0
v -544 -2560 0
v -576 -2592 0
v -608 -2592 0
v -608 -2560 0
v -576 -2560 0
v -608 -2592 0
v -640 -2592 0
v -640 -2560 0
v -608 -2560 0
v -640 -2592 0
v -672 -2592 0
v -672 -2560 0
v -640 -2560 0
v -672 -2592 0
v -704 -2592 0
v -704 -2560 0
v -672 -2560 0
v -704 -2592 0
v -736 -2592 0
v -736 -2560 0
v -704 -2560 0
v -736 -2592 0
v -768 -2592 0
v -768 -2560 0
v -736 -2560 0
v -448 -2624 0
v -480 -2624 0
v -480 -2592 0
v -448 -2592 0
v -480 -2624 0
v -512 -2624 0
v -512 -2592 0
v -480 -2592 0
v -512 -2624 0
v -544 -2624 0
v -544 -2592 0
v -512 -2592 0
v -544 -2624 0
v -576 -2624 0
v -576 -2592 0
v -544 -2592 0
v -576 -2624 0
v -608 -2624 0
v -608 -2592 0
v -576 -2592 0
v -608 -2624 0
v -640 -2624 0
v -640 -2592 0
v -608 -2592 0
v -640 -2624 0
v -672 -2624 0
v -672 -2592 0
v -640 -2592 0
v -672 -2624 0
v -704 -2624 0
v -704 -2592 0
v -672 -2592 0
v -704 -2624 0
v -736 -2624 0
v -736 -2592 0
v -704 -2592 0
v -736 -2624 0
v -768 -2624 0
v -768 -2592 0
v -736 -2592 0
v -448 -2656 0
v -480 -2656 0
v -480 -2624 0
v -448 -2624 0
v -480 -2656 0
v -512 -2656 0
v -512 -2624 0
v -480 -2624 0
v -512 -2656 0
v -544 -2656 0
v -544 -2624 0
v -512 -2624 0
v -448 -2688 0
v -480 -2688 0
v -480 -2656 0
v -448 -2656 0
v -480 -2688 0
v -512 -2688 0
v -512 -2656 0
v -480 -2656 0
v -512 -2688 0
v -544 -2688 0
v -544 -2656 0
v -512 -2656 0
v -448 -2720 0
v -480 -2720 0
v -480 -2688 0
v -448 -2688 0
v -480 -2720 0
v -512 -2720 0
v -512 -2688 0
v -480 -2688 0
v -512 -2720 0
v -544 -2720 0
v -544 -2688 0
v -512 -2688 0
v -448 -2752 0
v -480 -2752 0
v -480 -2720 0
v -448 -2720 0
v -480 -2752 0
v -512 -2752 0
v -512 -2720 0
v -480 -2720 0
v -512 -2752 0
v -544 -2752 0
v -544 -2720 0
v -512 -2720 0
v -448 -2784 0
v -480 -2784 0
v -480 -2752 0
v -448 -2752 0
v -480 -2784 0
v -512 -2784 0
v -512 -2752 0
v -480 -2752 0
v -512 -2784 0
v -544 -2784 0
v -544 -2752 0
v -512 -2752 0
v -448 -2816 0
v -480 -2816 0
v -480 -2784 0
v -448 -2784 0
v -480 -2816 0
v -512 -2816 0
v -512 -2784 0
v -480 -2784 0
v -512 -2816 0
v -544 -2816 0
v -544 -2784 0
v -512 -2784 0
v -896 -2976 0
v -928 -2976 0
v -928 -2944 0
v -896 -2944 0
v -928 -2976 0
v -960 -2976 0
v -960 -2944 0
v -928 -2944 0
v -960 -2976 0
v -992 -2976 0
v -992 -2944 0
v -960 -2944 0
v -992 -2976 0
v -1024 -2976 0
v -1024 -2944 0
v -992 -2944 0
v -1024 -2976 0
v -1056 -2976 0
v -1056 -2944 0
v -1024 -2944 0
v -1056 -2976 0
v -1088 -2976 0
v -1088 -2944 0
v -1056 -2944 0
v -1088 -2976 0
v -1120 -2976 0
v -1120 -2944 0
v -1088 -2944 0
v -1120 -2976 0
v -1152 -2976 0
v -1152 -2944 0
v -1120 -2944 0
v -1152 -2976 0
v -1184 -2976 0
v -1184 -2944 0
v -1152 -2944 0
v -1184 -2976 0
v -1216 -2976 0
v -1216 -2944 0
v -1184 -2944 0
v -1216 -2976 0
v -1248 -2976 0
v -1248 -2944 0
v -1216 -2944 0
v -1248 -2976 0
v -1280 -2976 0
v -1280 -2944 0
v -1248 -2944 0

# Texture cooridinates (Count = 94)
vt 0.1878669 0.1913357
vt 0.2504892 0.1913357
vt 0.2504892 0.2298436
vt 0.1878669 0.2298436
vt 0.3131115 0.1913357
vt 0.3131115 0.2298436
vt 0.3757339 0.1913357
vt 0.3757339 0.2298436
vt 0.4383562 0.1913357
vt 0.4383562 0.2298436
vt 0.1878669 0.1528279
vt 0.2504892 0.1528279
vt 0.3131115 0.1528279
vt 0.3757339 0.1528279
vt 0.4383562 0.1528279
vt 0.4383562 0.1143201
vt 0.5009785 0.1143201
vt 0.5009785 0.1528279
vt 0.5636008 0.1143201
vt 0.5636008 0.1528279
vt 0.6262231 0.1143201
vt 0.6262231 0.1528279
vt 0.6888454 0.1143201
vt 0.6888454 0.1528279
vt 0.7514677 0.1143201
vt 0.7514677 0.1528279
vt 0.81409 0.1143201
vt 0.81409 0.1528279
vt 0.8767123 0.1143201
vt 0.8767123 0.1528279
vt 0.9393346 0.1143201
vt 0.9393346 0.1528279
vt 0.4383562 0.07581228
vt 0.5009785 0.07581228
vt 0.5636008 0.07581228
vt 0.6262231 0.07581228
vt 0.5636008 0.345367
vt 0.6262231 0.345367
vt 0.6262231 0.3838748
vt 0.5636008 0.3838748
vt 0.6888454 0.345367
vt 0.6888454 0.3838748
vt 0.6262231 0.3068592
vt 0.6888454 0.3068592
vt 0 0.4223827
vt 0.06262231 0.4223827
vt 0.06262231 0.4608905
vt 0 0.4608905
vt 0.7514677 0.2298436
vt 0.81409 0.2298436
vt 0.81409 0.2683514
vt 0.7514677 0.2683514
vt 0.8767123 0.2298436
vt 0.8767123 0.2683514
vt 0.3757339 0.2683514
vt 0.3131115 0.2683514
vt 0.7514677 0.1913357
vt 0.81409 0.1913357
vt 0.8767123 0.1913357
vt 0.6262231 0.2298436
vt 0.6888454 0.2298436
vt 0.6888454 0.2683514
vt 0.6262231 0.2683514
vt 0.9393346 0.2298436
vt 0.9393346 0.2683514
vt 0 0.345367
vt 0.06262231 0.345367
vt 0.06262231 0.3838748
vt 0 0.3838748
vt 0.1252446 0.345367
vt 0.1252446 0.3838748
vt 0.1878669 0.345367
vt 0.1878669 0.3838748
vt 0.5009785 0.1913357
vt 0.5636008 0.1913357
vt 0.5636008 0.2298436
vt 0.5009785 0.2298436
vt 0.6262231 0.1913357
vt 0.6888454 0.1913357
vt 0.9393346 0.1913357
vt 0.1252446 0.4223827
vt 0.1252446 0.4608905
vt 0.1878669 0.4223827
vt 0.1878669 0.4608905
vt 0.06262231 0.4993983
vt 0.1252446 0.4993983
vt 0.1252446 0.5379062
vt 0.06262231 0.5379062
vt 0.1878669 0.4993983
vt 0.1878669 0.5379062
vt 0.2504892 0.4993983
vt 0.2504892 0.5379062
vt 0.3131115 0.4993983
vt 0.3131115 0.5379062

# Normal
vn 0 0 -1

# Mesh description
g Luolanjatkumo1_mesh_0019

# Faces
f 1/1/1 2/2/1 3/3/1 4/4/1
f 5/2/1 6/5/1 7/6/1 8/3/1
f 9/5/1 10/7/1 11/8/1 12/6/1
f 13/7/1 14/9/1 15/10/1 16/8/1
f 17/11/1 18/12/1 19/2/1 20/1/1
f 21/12/1 22/13/1 23/5/1 24/2/1
f 25/13/1 26/14/1 27/7/1 28/5/1
f 29/14/1 30/15/1 31/9/1 32/7/1
f 33/11/1 34/12/1 35/2/1 36/1/1
f 37/12/1 38/13/1 39/5/1 40/2/1
f 41/13/1 42/14/1 43/7/1 44/5/1
f 45/14/1 46/15/1 47/9/1 48/7/1
f 49/11/1 50/12/1 51/2/1 52/1/1
f 53/12/1 54/13/1 55/5/1 56/2/1
f 57/13/1 58/14/1 59/7/1 60/5/1
f 61/14/1 62/15/1 63/9/1 64/7/1
f 65/16/1 66/17/1 67/18/1 68/15/1
f 69/17/1 70/19/1 71/20/1 72/18/1
f 73/19/1 74/21/1 75/22/1 76/20/1
f 77/21/1 78/23/1 79/24/1 80/22/1
f 81/23/1 82/25/1 83/26/1 84/24/1
f 85/25/1 86/27/1 87/28/1 88/26/1
f 89/27/1 90/29/1 91/30/1 92/28/1
f 93/29/1 94/31/1 95/32/1 96/30/1
f 97/33/1 98/34/1 99/17/1 100/16/1
f 101/34/1 102/35/1 103/19/1 104/17/1
f 105/35/1 106/36/1 107/21/1 108/19/1
f 109/37/1 110/38/1 111/39/1 112/40/1
f 113/38/1 114/41/1 115/42/1 116/39/1
f 117/43/1 118/44/1 119/41/1 120/38/1
f 121/45/1 122/46/1 123/47/1 124/48/1
f 125/49/1 126/50/1 127/51/1 128/52/1
f 129/50/1 130/53/1 131/54/1 132/51/1
f 133/6/1 134/8/1 135/55/1 136/56/1
f 137/57/1 138/58/1 139/50/1 140/49/1
f 141/58/1 142/59/1 143/53/1 144/50/1
f 145/60/1 146/61/1 147/62/1 148/63/1
f 149/61/1 150/49/1 151/52/1 152/62/1
f 153/49/1 154/50/1 155/51/1 156/52/1
f 157/50/1 158/53/1 159/54/1 160/51/1
f 161/53/1 162/64/1 163/65/1 164/54/1
f 165/66/1 166/67/1 167/68/1 168/69/1
f 169/67/1 170/70/1 171/71/1 172/68/1
f 173/70/1 174/72/1 175/73/1 176/71/1
f 177/74/1 178/75/1 179/76/1 180/77/1
f 181/75/1 182/78/1 183/60/1 184/76/1
f 185/78/1 186/79/1 187/61/1 188/60/1
f 189/79/1 190/57/1 191/49/1 192/61/1
f 193/57/1 194/58/1 195/50/1 196/49/1
f 197/58/1 198/59/1 199/53/1 200/50/1
f 201/59/1 202/80/1 203/64/1 204/53/1
f 205/45/1 206/46/1 207/47/1 208/48/1
f 209/46/1 210/81/1 211/82/1 212/47/1
f 213/81/1 214/83/1 215/84/1 216/82/1
f 217/69/1 218/68/1 219/46/1 220/45/1
f 221/68/1 222/71/1 223/81/1 224/46/1
f 225/71/1 226/73/1 227/83/1 228/81/1
f 229/66/1 230/67/1 231/68/1 232/69/1
f 233/67/1 234/70/1 235/71/1 236/68/1
f 237/70/1 238/72/1 239/73/1 240/71/1
f 241/45/1 242/46/1 243/47/1 244/48/1
f 245/46/1 246/81/1 247/82/1 248/47/1
f 249/81/1 250/83/1 251/84/1 252/82/1
f 253/69/1 254/68/1 255/46/1 256/45/1
f 257/68/1 258/71/1 259/81/1 260/46/1
f 261/71/1 262/73/1 263/83/1 264/81/1
f 265/66/1 266/67/1 267/68/1 268/69/1
f 269/67/1 270/70/1 271/71/1 272/68/1
f 273/70/1 274/72/1 275/73/1 276/71/1
f 277/85/1 278/86/1 279/87/1 280/88/1
f 281/86/1 282/89/1 283/90/1 284/87/1
f 285/89/1 286/91/1 287/92/1 288/90/1
f 289/91/1 290/93/1 291/94/1 292/92/1
f 293/85/1 294/86/1 295/87/1 296/88/1
f 297/86/1 298/89/1 299/90/1 300/87/1
f 301/89/1 302/91/1 303/92/1 304/90/1
f 305/91/1 306/93/1 307/94/1 308/92/1
f 309/85/1 310/86/1 311/87/1 312/88/1
f 313/86/1 314/89/1 315/90/1 316/87/1
f 317/89/1 318/91/1 319/92/1 320/90/1
f 321/91/1 322/93/1 323/94/1 324/92/1

