# Tiled2Unity generated file. Do not modify by hand.
# Wavefront file for 'Luolanjatkumo1_mesh_0011.obj'

# Vertices (Count = 336)
v -992 -1280 0
v -1024 -1280 0
v -1024 -1248 0
v -992 -1248 0
v -992 -1312 0
v -1024 -1312 0
v -1024 -1280 0
v -992 -1280 0
v -992 -1344 0
v -1024 -1344 0
v -1024 -1312 0
v -992 -1312 0
v -992 -1376 0
v -1024 -1376 0
v -1024 -1344 0
v -992 -1344 0
v -2592 -1824 0
v -2624 -1824 0
v -2624 -1792 0
v -2592 -1792 0
v -2592 -1856 0
v -2624 -1856 0
v -2624 -1824 0
v -2592 -1824 0
v -2592 -1888 0
v -2624 -1888 0
v -2624 -1856 0
v -2592 -1856 0
v -2592 -1920 0
v -2624 -1920 0
v -2624 -1888 0
v -2592 -1888 0
v -1760 -2080 0
v -1792 -2080 0
v -1792 -2048 0
v -1760 -2048 0
v -1792 -2080 0
v -1824 -2080 0
v -1824 -2048 0
v -1792 -2048 0
v -1824 -2080 0
v -1856 -2080 0
v -1856 -2048 0
v -1824 -2048 0
v -1856 -2080 0
v -1888 -2080 0
v -1888 -2048 0
v -1856 -2048 0
v -1888 -2080 0
v -1920 -2080 0
v -1920 -2048 0
v -1888 -2048 0
v -1920 -2080 0
v -1952 -2080 0
v -1952 -2048 0
v -1920 -2048 0
v -1952 -2080 0
v -1984 -2080 0
v -1984 -2048 0
v -1952 -2048 0
v -1984 -2080 0
v -2016 -2080 0
v -2016 -2048 0
v -1984 -2048 0
v -2016 -2080 0
v -2048 -2080 0
v -2048 -2048 0
v -2016 -2048 0
v -2048 -2080 0
v -2080 -2080 0
v -2080 -2048 0
v -2048 -2048 0
v -2080 -2080 0
v -2112 -2080 0
v -2112 -2048 0
v -2080 -2048 0
v -2112 -2080 0
v -2144 -2080 0
v -2144 -2048 0
v -2112 -2048 0
v -1760 -2112 0
v -1792 -2112 0
v -1792 -2080 0
v -1760 -2080 0
v -1792 -2112 0
v -1824 -2112 0
v -1824 -2080 0
v -1792 -2080 0
v -1824 -2112 0
v -1856 -2112 0
v -1856 -2080 0
v -1824 -2080 0
v -1856 -2112 0
v -1888 -2112 0
v -1888 -2080 0
v -1856 -2080 0
v -1888 -2112 0
v -1920 -2112 0
v -1920 -2080 0
v -1888 -2080 0
v -1920 -2112 0
v -1952 -2112 0
v -1952 -2080 0
v -1920 -2080 0
v -1952 -2112 0
v -1984 -2112 0
v -1984 -2080 0
v -1952 -2080 0
v -1984 -2112 0
v -2016 -2112 0
v -2016 -2080 0
v -1984 -2080 0
v -2016 -2112 0
v -2048 -2112 0
v -2048 -2080 0
v -2016 -2080 0
v -2048 -2112 0
v -2080 -2112 0
v -2080 -2080 0
v -2048 -2080 0
v -2080 -2112 0
v -2112 -2112 0
v -2112 -2080 0
v -2080 -2080 0
v -2112 -2112 0
v -2144 -2112 0
v -2144 -2080 0
v -2112 -2080 0
v -1760 -2144 0
v -1792 -2144 0
v -1792 -2112 0
v -1760 -2112 0
v -1792 -2144 0
v -1824 -2144 0
v -1824 -2112 0
v -1792 -2112 0
v -1824 -2144 0
v -1856 -2144 0
v -1856 -2112 0
v -1824 -2112 0
v -1856 -2144 0
v -1888 -2144 0
v -1888 -2112 0
v -1856 -2112 0
v -1888 -2144 0
v -1920 -2144 0
v -1920 -2112 0
v -1888 -2112 0
v -1920 -2144 0
v -1952 -2144 0
v -1952 -2112 0
v -1920 -2112 0
v -1952 -2144 0
v -1984 -2144 0
v -1984 -2112 0
v -1952 -2112 0
v -1984 -2144 0
v -2016 -2144 0
v -2016 -2112 0
v -1984 -2112 0
v -2016 -2144 0
v -2048 -2144 0
v -2048 -2112 0
v -2016 -2112 0
v -2048 -2144 0
v -2080 -2144 0
v -2080 -2112 0
v -2048 -2112 0
v -2080 -2144 0
v -2112 -2144 0
v -2112 -2112 0
v -2080 -2112 0
v -2112 -2144 0
v -2144 -2144 0
v -2144 -2112 0
v -2112 -2112 0
v -1760 -2176 0
v -1792 -2176 0
v -1792 -2144 0
v -1760 -2144 0
v -1792 -2176 0
v -1824 -2176 0
v -1824 -2144 0
v -1792 -2144 0
v -1824 -2176 0
v -1856 -2176 0
v -1856 -2144 0
v -1824 -2144 0
v -1856 -2176 0
v -1888 -2176 0
v -1888 -2144 0
v -1856 -2144 0
v -1888 -2176 0
v -1920 -2176 0
v -1920 -2144 0
v -1888 -2144 0
v -1920 -2176 0
v -1952 -2176 0
v -1952 -2144 0
v -1920 -2144 0
v -1952 -2176 0
v -1984 -2176 0
v -1984 -2144 0
v -1952 -2144 0
v -1984 -2176 0
v -2016 -2176 0
v -2016 -2144 0
v -1984 -2144 0
v -2016 -2176 0
v -2048 -2176 0
v -2048 -2144 0
v -2016 -2144 0
v -2048 -2176 0
v -2080 -2176 0
v -2080 -2144 0
v -2048 -2144 0
v -2080 -2176 0
v -2112 -2176 0
v -2112 -2144 0
v -2080 -2144 0
v -1760 -2208 0
v -1792 -2208 0
v -1792 -2176 0
v -1760 -2176 0
v -1792 -2208 0
v -1824 -2208 0
v -1824 -2176 0
v -1792 -2176 0
v -1824 -2208 0
v -1856 -2208 0
v -1856 -2176 0
v -1824 -2176 0
v -1856 -2208 0
v -1888 -2208 0
v -1888 -2176 0
v -1856 -2176 0
v -1888 -2208 0
v -1920 -2208 0
v -1920 -2176 0
v -1888 -2176 0
v -1920 -2208 0
v -1952 -2208 0
v -1952 -2176 0
v -1920 -2176 0
v -1952 -2208 0
v -1984 -2208 0
v -1984 -2176 0
v -1952 -2176 0
v -1984 -2208 0
v -2016 -2208 0
v -2016 -2176 0
v -1984 -2176 0
v -2016 -2208 0
v -2048 -2208 0
v -2048 -2176 0
v -2016 -2176 0
v -2048 -2208 0
v -2080 -2208 0
v -2080 -2176 0
v -2048 -2176 0
v -1760 -2240 0
v -1792 -2240 0
v -1792 -2208 0
v -1760 -2208 0
v -1792 -2240 0
v -1824 -2240 0
v -1824 -2208 0
v -1792 -2208 0
v -1824 -2240 0
v -1856 -2240 0
v -1856 -2208 0
v -1824 -2208 0
v -1856 -2240 0
v -1888 -2240 0
v -1888 -2208 0
v -1856 -2208 0
v -1888 -2240 0
v -1920 -2240 0
v -1920 -2208 0
v -1888 -2208 0
v -1920 -2240 0
v -1952 -2240 0
v -1952 -2208 0
v -1920 -2208 0
v -1952 -2240 0
v -1984 -2240 0
v -1984 -2208 0
v -1952 -2208 0
v -1984 -2240 0
v -2016 -2240 0
v -2016 -2208 0
v -1984 -2208 0
v -2016 -2240 0
v -2048 -2240 0
v -2048 -2208 0
v -2016 -2208 0
v -2048 -2240 0
v -2080 -2240 0
v -2080 -2208 0
v -2048 -2208 0
v -2080 -2240 0
v -2112 -2240 0
v -2112 -2208 0
v -2080 -2208 0
v -1760 -2272 0
v -1792 -2272 0
v -1792 -2240 0
v -1760 -2240 0
v -1792 -2272 0
v -1824 -2272 0
v -1824 -2240 0
v -1792 -2240 0
v -1824 -2272 0
v -1856 -2272 0
v -1856 -2240 0
v -1824 -2240 0
v -1856 -2272 0
v -1888 -2272 0
v -1888 -2240 0
v -1856 -2240 0
v -1888 -2272 0
v -1920 -2272 0
v -1920 -2240 0
v -1888 -2240 0
v -1920 -2272 0
v -1952 -2272 0
v -1952 -2240 0
v -1920 -2240 0
v -1952 -2272 0
v -1984 -2272 0
v -1984 -2240 0
v -1952 -2240 0
v -2080 -2272 0
v -2112 -2272 0
v -2112 -2240 0
v -2080 -2240 0

# Texture cooridinates (Count = 118)
vt 0.8086643 0.3737769
vt 0.8471721 0.3737769
vt 0.8471721 0.4363992
vt 0.8086643 0.4363992
vt 0.8086643 0.3111546
vt 0.8471721 0.3111546
vt 0.8086643 0.2485323
vt 0.8471721 0.2485323
vt 0.8086643 0.18591
vt 0.8471721 0.18591
vt 0.423586 0.3111546
vt 0.4620939 0.3111546
vt 0.4620939 0.3737769
vt 0.423586 0.3737769
vt 0.423586 0.2485323
vt 0.4620939 0.2485323
vt 0.423586 0.18591
vt 0.4620939 0.18591
vt 0.423586 0.1232877
vt 0.4620939 0.1232877
vt 0.1925391 0.9373777
vt 0.2310469 0.9373777
vt 0.2310469 1
vt 0.1925391 1
vt 0.2695548 0.9373777
vt 0.2695548 1
vt 0.3080626 0.9373777
vt 0.3080626 1
vt 0.3465704 0.9373777
vt 0.3465704 1
vt 0.3850782 0.9373777
vt 0.3850782 1
vt 0.423586 0.9373777
vt 0.423586 1
vt 0.4620939 0.9373777
vt 0.4620939 1
vt 0.5006017 0.9373777
vt 0.5006017 1
vt 0.5391095 0.9373777
vt 0.5391095 1
vt 0.5776173 0.9373777
vt 0.5776173 1
vt 0.6161252 0.9373777
vt 0.6161252 1
vt 0.654633 0.9373777
vt 0.654633 1
vt 0.1925391 0.8747554
vt 0.2310469 0.8747554
vt 0.2695548 0.8747554
vt 0.3080626 0.8747554
vt 0.3465704 0.8747554
vt 0.3850782 0.8747554
vt 0.423586 0.8747554
vt 0.4620939 0.8747554
vt 0.5006017 0.8747554
vt 0.5391095 0.8747554
vt 0.5776173 0.8747554
vt 0.6161252 0.8747554
vt 0.654633 0.8747554
vt 0.1925391 0.8121331
vt 0.2310469 0.8121331
vt 0.2695548 0.8121331
vt 0.3080626 0.8121331
vt 0.3465704 0.8121331
vt 0.3850782 0.8121331
vt 0.423586 0.8121331
vt 0.4620939 0.8121331
vt 0.5006017 0.8121331
vt 0.5391095 0.8121331
vt 0.5776173 0.8121331
vt 0.6161252 0.8121331
vt 0.654633 0.8121331
vt 0.1925391 0.7495108
vt 0.2310469 0.7495108
vt 0.2695548 0.7495108
vt 0.3080626 0.7495108
vt 0.3465704 0.7495108
vt 0.3850782 0.7495108
vt 0.423586 0.7495108
vt 0.4620939 0.7495108
vt 0.5006017 0.7495108
vt 0.5391095 0.7495108
vt 0.5776173 0.7495108
vt 0.6161252 0.7495108
vt 0.1925391 0.6868885
vt 0.2310469 0.6868885
vt 0.2695548 0.6868885
vt 0.3080626 0.6868885
vt 0.3465704 0.6868885
vt 0.3850782 0.6868885
vt 0.423586 0.6868885
vt 0.4620939 0.6868885
vt 0.5006017 0.6868885
vt 0.5391095 0.6868885
vt 0.5776173 0.6868885
vt 0.1925391 0.6242661
vt 0.2310469 0.6242661
vt 0.2695548 0.6242661
vt 0.3080626 0.6242661
vt 0.3465704 0.6242661
vt 0.3850782 0.6242661
vt 0.423586 0.6242661
vt 0.4620939 0.6242661
vt 0.5006017 0.6242661
vt 0.5391095 0.6242661
vt 0.5776173 0.6242661
vt 0.6161252 0.6242661
vt 0.6161252 0.6868885
vt 0.1925391 0.5616438
vt 0.2310469 0.5616438
vt 0.2695548 0.5616438
vt 0.3080626 0.5616438
vt 0.3465704 0.5616438
vt 0.3850782 0.5616438
vt 0.423586 0.5616438
vt 0.4620939 0.5616438
vt 0.5776173 0.5616438
vt 0.6161252 0.5616438

# Normal
vn 0 0 -1

# Mesh description
g Luolanjatkumo1_mesh_0011

# Faces
f 1/1/1 2/2/1 3/3/1 4/4/1
f 5/5/1 6/6/1 7/2/1 8/1/1
f 9/7/1 10/8/1 11/6/1 12/5/1
f 13/9/1 14/10/1 15/8/1 16/7/1
f 17/11/1 18/12/1 19/13/1 20/14/1
f 21/15/1 22/16/1 23/12/1 24/11/1
f 25/17/1 26/18/1 27/16/1 28/15/1
f 29/19/1 30/20/1 31/18/1 32/17/1
f 33/21/1 34/22/1 35/23/1 36/24/1
f 37/22/1 38/25/1 39/26/1 40/23/1
f 41/25/1 42/27/1 43/28/1 44/26/1
f 45/27/1 46/29/1 47/30/1 48/28/1
f 49/29/1 50/31/1 51/32/1 52/30/1
f 53/31/1 54/33/1 55/34/1 56/32/1
f 57/33/1 58/35/1 59/36/1 60/34/1
f 61/35/1 62/37/1 63/38/1 64/36/1
f 65/37/1 66/39/1 67/40/1 68/38/1
f 69/39/1 70/41/1 71/42/1 72/40/1
f 73/41/1 74/43/1 75/44/1 76/42/1
f 77/43/1 78/45/1 79/46/1 80/44/1
f 81/47/1 82/48/1 83/22/1 84/21/1
f 85/48/1 86/49/1 87/25/1 88/22/1
f 89/49/1 90/50/1 91/27/1 92/25/1
f 93/50/1 94/51/1 95/29/1 96/27/1
f 97/51/1 98/52/1 99/31/1 100/29/1
f 101/52/1 102/53/1 103/33/1 104/31/1
f 105/53/1 106/54/1 107/35/1 108/33/1
f 109/54/1 110/55/1 111/37/1 112/35/1
f 113/55/1 114/56/1 115/39/1 116/37/1
f 117/56/1 118/57/1 119/41/1 120/39/1
f 121/57/1 122/58/1 123/43/1 124/41/1
f 125/58/1 126/59/1 127/45/1 128/43/1
f 129/60/1 130/61/1 131/48/1 132/47/1
f 133/61/1 134/62/1 135/49/1 136/48/1
f 137/62/1 138/63/1 139/50/1 140/49/1
f 141/63/1 142/64/1 143/51/1 144/50/1
f 145/64/1 146/65/1 147/52/1 148/51/1
f 149/65/1 150/66/1 151/53/1 152/52/1
f 153/66/1 154/67/1 155/54/1 156/53/1
f 157/67/1 158/68/1 159/55/1 160/54/1
f 161/68/1 162/69/1 163/56/1 164/55/1
f 165/69/1 166/70/1 167/57/1 168/56/1
f 169/70/1 170/71/1 171/58/1 172/57/1
f 173/71/1 174/72/1 175/59/1 176/58/1
f 177/73/1 178/74/1 179/61/1 180/60/1
f 181/74/1 182/75/1 183/62/1 184/61/1
f 185/75/1 186/76/1 187/63/1 188/62/1
f 189/76/1 190/77/1 191/64/1 192/63/1
f 193/77/1 194/78/1 195/65/1 196/64/1
f 197/78/1 198/79/1 199/66/1 200/65/1
f 201/79/1 202/80/1 203/67/1 204/66/1
f 205/80/1 206/81/1 207/68/1 208/67/1
f 209/81/1 210/82/1 211/69/1 212/68/1
f 213/82/1 214/83/1 215/70/1 216/69/1
f 217/83/1 218/84/1 219/71/1 220/70/1
f 221/85/1 222/86/1 223/74/1 224/73/1
f 225/86/1 226/87/1 227/75/1 228/74/1
f 229/87/1 230/88/1 231/76/1 232/75/1
f 233/88/1 234/89/1 235/77/1 236/76/1
f 237/89/1 238/90/1 239/78/1 240/77/1
f 241/90/1 242/91/1 243/79/1 244/78/1
f 245/91/1 246/92/1 247/80/1 248/79/1
f 249/92/1 250/93/1 251/81/1 252/80/1
f 253/93/1 254/94/1 255/82/1 256/81/1
f 257/94/1 258/95/1 259/83/1 260/82/1
f 261/96/1 262/97/1 263/86/1 264/85/1
f 265/97/1 266/98/1 267/87/1 268/86/1
f 269/98/1 270/99/1 271/88/1 272/87/1
f 273/99/1 274/100/1 275/89/1 276/88/1
f 277/100/1 278/101/1 279/90/1 280/89/1
f 281/101/1 282/102/1 283/91/1 284/90/1
f 285/102/1 286/103/1 287/92/1 288/91/1
f 289/103/1 290/104/1 291/93/1 292/92/1
f 293/104/1 294/105/1 295/94/1 296/93/1
f 297/105/1 298/106/1 299/95/1 300/94/1
f 301/106/1 302/107/1 303/108/1 304/95/1
f 305/109/1 306/110/1 307/97/1 308/96/1
f 309/110/1 310/111/1 311/98/1 312/97/1
f 313/111/1 314/112/1 315/99/1 316/98/1
f 317/112/1 318/113/1 319/100/1 320/99/1
f 321/113/1 322/114/1 323/101/1 324/100/1
f 325/114/1 326/115/1 327/102/1 328/101/1
f 329/115/1 330/116/1 331/103/1 332/102/1
f 333/117/1 334/118/1 335/107/1 336/106/1

