# Tiled2Unity generated file. Do not modify by hand.
# Wavefront file for 'Luolanjatkumo1_mesh_0006.obj'

# Vertices (Count = 132)
v -1728 -1920 0
v -1760 -1920 0
v -1760 -1888 0
v -1728 -1888 0
v -1760 -1920 0
v -1792 -1920 0
v -1792 -1888 0
v -1760 -1888 0
v -1728 -1952 0
v -1760 -1952 0
v -1760 -1920 0
v -1728 -1920 0
v -1760 -1952 0
v -1792 -1952 0
v -1792 -1920 0
v -1760 -1920 0
v -1632 -1984 0
v -1664 -1984 0
v -1664 -1952 0
v -1632 -1952 0
v -1728 -1984 0
v -1760 -1984 0
v -1760 -1952 0
v -1728 -1952 0
v -1760 -1984 0
v -1792 -1984 0
v -1792 -1952 0
v -1760 -1952 0
v -1792 -1984 0
v -1824 -1984 0
v -1824 -1952 0
v -1792 -1952 0
v -1824 -1984 0
v -1856 -1984 0
v -1856 -1952 0
v -1824 -1952 0
v -1632 -2016 0
v -1664 -2016 0
v -1664 -1984 0
v -1632 -1984 0
v -1728 -2016 0
v -1760 -2016 0
v -1760 -1984 0
v -1728 -1984 0
v -1760 -2016 0
v -1792 -2016 0
v -1792 -1984 0
v -1760 -1984 0
v -1792 -2016 0
v -1824 -2016 0
v -1824 -1984 0
v -1792 -1984 0
v -1824 -2016 0
v -1856 -2016 0
v -1856 -1984 0
v -1824 -1984 0
v -1632 -2048 0
v -1664 -2048 0
v -1664 -2016 0
v -1632 -2016 0
v -1792 -2048 0
v -1824 -2048 0
v -1824 -2016 0
v -1792 -2016 0
v -1824 -2048 0
v -1856 -2048 0
v -1856 -2016 0
v -1824 -2016 0
v -1856 -2048 0
v -1888 -2048 0
v -1888 -2016 0
v -1856 -2016 0
v -1888 -2048 0
v -1920 -2048 0
v -1920 -2016 0
v -1888 -2016 0
v -1632 -2080 0
v -1664 -2080 0
v -1664 -2048 0
v -1632 -2048 0
v -1792 -2080 0
v -1824 -2080 0
v -1824 -2048 0
v -1792 -2048 0
v -1824 -2080 0
v -1856 -2080 0
v -1856 -2048 0
v -1824 -2048 0
v -1856 -2080 0
v -1888 -2080 0
v -1888 -2048 0
v -1856 -2048 0
v -1888 -2080 0
v -1920 -2080 0
v -1920 -2048 0
v -1888 -2048 0
v -1920 -2080 0
v -1952 -2080 0
v -1952 -2048 0
v -1920 -2048 0
v -1856 -2112 0
v -1888 -2112 0
v -1888 -2080 0
v -1856 -2080 0
v -1888 -2112 0
v -1920 -2112 0
v -1920 -2080 0
v -1888 -2080 0
v -1920 -2112 0
v -1952 -2112 0
v -1952 -2080 0
v -1920 -2080 0
v -1856 -2144 0
v -1888 -2144 0
v -1888 -2112 0
v -1856 -2112 0
v -1888 -2144 0
v -1920 -2144 0
v -1920 -2112 0
v -1888 -2112 0
v -1920 -2144 0
v -1952 -2144 0
v -1952 -2112 0
v -1920 -2112 0
v -1888 -2176 0
v -1920 -2176 0
v -1920 -2144 0
v -1888 -2144 0
v -1920 -2176 0
v -1952 -2176 0
v -1952 -2144 0
v -1920 -2144 0

# Texture cooridinates (Count = 23)
vt 0.06336634 0.5974843
vt 0.1267327 0.5974843
vt 0.1267327 0.6310272
vt 0.06336634 0.6310272
vt 0.190099 0.5974843
vt 0.190099 0.6310272
vt 0.06336634 0.5639413
vt 0.1267327 0.5639413
vt 0.190099 0.5639413
vt 0 0.7316562
vt 0.06336634 0.7316562
vt 0.06336634 0.7651992
vt 0 0.7651992
vt 0.06336634 0.5303983
vt 0.1267327 0.5303983
vt 0.190099 0.5303983
vt 0 0.6981132
vt 0.06336634 0.6981132
vt 0.06336634 0.4968553
vt 0.1267327 0.4968553
vt 0.190099 0.4968553
vt 0 0.6645702
vt 0.06336634 0.6645702

# Normal
vn 0 0 -1

# Mesh description
g Luolanjatkumo1_mesh_0006

# Faces
f 1/1/1 2/2/1 3/3/1 4/4/1
f 5/2/1 6/5/1 7/6/1 8/3/1
f 9/7/1 10/8/1 11/2/1 12/1/1
f 13/8/1 14/9/1 15/5/1 16/2/1
f 17/10/1 18/11/1 19/12/1 20/13/1
f 21/14/1 22/15/1 23/8/1 24/7/1
f 25/15/1 26/16/1 27/9/1 28/8/1
f 29/1/1 30/2/1 31/3/1 32/4/1
f 33/2/1 34/5/1 35/6/1 36/3/1
f 37/17/1 38/18/1 39/11/1 40/10/1
f 41/19/1 42/20/1 43/15/1 44/14/1
f 45/20/1 46/21/1 47/16/1 48/15/1
f 49/7/1 50/8/1 51/2/1 52/1/1
f 53/8/1 54/9/1 55/5/1 56/2/1
f 57/22/1 58/23/1 59/18/1 60/17/1
f 61/14/1 62/15/1 63/8/1 64/7/1
f 65/15/1 66/16/1 67/9/1 68/8/1
f 69/1/1 70/2/1 71/3/1 72/4/1
f 73/2/1 74/5/1 75/6/1 76/3/1
f 77/22/1 78/23/1 79/18/1 80/17/1
f 81/19/1 82/20/1 83/15/1 84/14/1
f 85/20/1 86/21/1 87/16/1 88/15/1
f 89/7/1 90/8/1 91/2/1 92/1/1
f 93/1/1 94/2/1 95/3/1 96/4/1
f 97/2/1 98/5/1 99/6/1 100/3/1
f 101/14/1 102/15/1 103/8/1 104/7/1
f 105/7/1 106/8/1 107/2/1 108/1/1
f 109/8/1 110/9/1 111/5/1 112/2/1
f 113/19/1 114/20/1 115/15/1 116/14/1
f 117/14/1 118/15/1 119/8/1 120/7/1
f 121/15/1 122/16/1 123/9/1 124/8/1
f 125/19/1 126/20/1 127/15/1 128/14/1
f 129/20/1 130/21/1 131/16/1 132/15/1

