# Tiled2Unity generated file. Do not modify by hand.
# Wavefront file for 'Luolanjatkumo1_mesh_0014.obj'

# Vertices (Count = 116)
v -2432 -1120 0
v -2464 -1120 0
v -2464 -1088 0
v -2432 -1088 0
v -2464 -1120 0
v -2496 -1120 0
v -2496 -1088 0
v -2464 -1088 0
v -2496 -1120 0
v -2528 -1120 0
v -2528 -1088 0
v -2496 -1088 0
v -2528 -1120 0
v -2560 -1120 0
v -2560 -1088 0
v -2528 -1088 0
v -2560 -1120 0
v -2592 -1120 0
v -2592 -1088 0
v -2560 -1088 0
v -2592 -1120 0
v -2624 -1120 0
v -2624 -1088 0
v -2592 -1088 0
v -2624 -1120 0
v -2656 -1120 0
v -2656 -1088 0
v -2624 -1088 0
v -2432 -1152 0
v -2464 -1152 0
v -2464 -1120 0
v -2432 -1120 0
v -2464 -1152 0
v -2496 -1152 0
v -2496 -1120 0
v -2464 -1120 0
v -2496 -1152 0
v -2528 -1152 0
v -2528 -1120 0
v -2496 -1120 0
v -2528 -1152 0
v -2560 -1152 0
v -2560 -1120 0
v -2528 -1120 0
v -2560 -1152 0
v -2592 -1152 0
v -2592 -1120 0
v -2560 -1120 0
v -2592 -1152 0
v -2624 -1152 0
v -2624 -1120 0
v -2592 -1120 0
v -2624 -1152 0
v -2656 -1152 0
v -2656 -1120 0
v -2624 -1120 0
v -1824 -1600 0
v -1856 -1600 0
v -1856 -1568 0
v -1824 -1568 0
v -1856 -1600 0
v -1888 -1600 0
v -1888 -1568 0
v -1856 -1568 0
v -1888 -1600 0
v -1920 -1600 0
v -1920 -1568 0
v -1888 -1568 0
v -1920 -1600 0
v -1952 -1600 0
v -1952 -1568 0
v -1920 -1568 0
v -1824 -1632 0
v -1856 -1632 0
v -1856 -1600 0
v -1824 -1600 0
v -1856 -1632 0
v -1888 -1632 0
v -1888 -1600 0
v -1856 -1600 0
v -1888 -1632 0
v -1920 -1632 0
v -1920 -1600 0
v -1888 -1600 0
v -1920 -1632 0
v -1952 -1632 0
v -1952 -1600 0
v -1920 -1600 0
v -1824 -1664 0
v -1856 -1664 0
v -1856 -1632 0
v -1824 -1632 0
v -1856 -1664 0
v -1888 -1664 0
v -1888 -1632 0
v -1856 -1632 0
v -1888 -1664 0
v -1920 -1664 0
v -1920 -1632 0
v -1888 -1632 0
v -1952 -1664 0
v -1984 -1664 0
v -1984 -1632 0
v -1952 -1632 0
v -1984 -1664 0
v -2016 -1664 0
v -2016 -1632 0
v -1984 -1632 0
v -2016 -1664 0
v -2048 -1664 0
v -2048 -1632 0
v -2016 -1632 0
v -2048 -1664 0
v -2080 -1664 0
v -2080 -1632 0
v -2048 -1632 0

# Texture cooridinates (Count = 41)
vt 0.1878669 0.1913357
vt 0.2504892 0.1913357
vt 0.2504892 0.2298436
vt 0.1878669 0.2298436
vt 0.3131115 0.1913357
vt 0.3131115 0.2298436
vt 0.3757339 0.1913357
vt 0.3757339 0.2298436
vt 0.4383562 0.1913357
vt 0.4383562 0.2298436
vt 0.1878669 0.1528279
vt 0.2504892 0.1528279
vt 0.3131115 0.1528279
vt 0.3757339 0.1528279
vt 0.4383562 0.1528279
vt 0.5009785 0.1528279
vt 0.5009785 0.1913357
vt 0.5636008 0.1528279
vt 0.5636008 0.1913357
vt 0.6262231 0.1528279
vt 0.6262231 0.1913357
vt 0.6888454 0.1528279
vt 0.6888454 0.1913357
vt 0.4383562 0.1143201
vt 0.5009785 0.1143201
vt 0.5636008 0.1143201
vt 0.6262231 0.1143201
vt 0.6888454 0.1143201
vt 0.4383562 0.07581228
vt 0.5009785 0.07581228
vt 0.5636008 0.07581228
vt 0.6262231 0.07581228
vt 0.6888454 0.07581228
vt 0.7514677 0.07581228
vt 0.7514677 0.1143201
vt 0.81409 0.07581228
vt 0.81409 0.1143201
vt 0.8767123 0.07581228
vt 0.8767123 0.1143201
vt 0.9393346 0.07581228
vt 0.9393346 0.1143201

# Normal
vn 0 0 -1

# Mesh description
g Luolanjatkumo1_mesh_0014

# Faces
f 1/1/1 2/2/1 3/3/1 4/4/1
f 5/2/1 6/5/1 7/6/1 8/3/1
f 9/5/1 10/7/1 11/8/1 12/6/1
f 13/1/1 14/2/1 15/3/1 16/4/1
f 17/2/1 18/5/1 19/6/1 20/3/1
f 21/5/1 22/7/1 23/8/1 24/6/1
f 25/7/1 26/9/1 27/10/1 28/8/1
f 29/11/1 30/12/1 31/2/1 32/1/1
f 33/12/1 34/13/1 35/5/1 36/2/1
f 37/13/1 38/14/1 39/7/1 40/5/1
f 41/11/1 42/12/1 43/2/1 44/1/1
f 45/12/1 46/13/1 47/5/1 48/2/1
f 49/13/1 50/14/1 51/7/1 52/5/1
f 53/14/1 54/15/1 55/9/1 56/7/1
f 57/15/1 58/16/1 59/17/1 60/9/1
f 61/16/1 62/18/1 63/19/1 64/17/1
f 65/18/1 66/20/1 67/21/1 68/19/1
f 69/20/1 70/22/1 71/23/1 72/21/1
f 73/24/1 74/25/1 75/16/1 76/15/1
f 77/25/1 78/26/1 79/18/1 80/16/1
f 81/26/1 82/27/1 83/20/1 84/18/1
f 85/27/1 86/28/1 87/22/1 88/20/1
f 89/29/1 90/30/1 91/25/1 92/24/1
f 93/30/1 94/31/1 95/26/1 96/25/1
f 97/31/1 98/32/1 99/27/1 100/26/1
f 101/33/1 102/34/1 103/35/1 104/28/1
f 105/34/1 106/36/1 107/37/1 108/35/1
f 109/36/1 110/38/1 111/39/1 112/37/1
f 113/38/1 114/40/1 115/41/1 116/39/1

