# Tiled2Unity generated file. Do not modify by hand.
# Wavefront file for 'Luolanjatkumo1_mesh_0005.obj'

# Vertices (Count = 24)
v -1664 -1376 0
v -1696 -1376 0
v -1696 -1344 0
v -1664 -1344 0
v -1664 -1408 0
v -1696 -1408 0
v -1696 -1376 0
v -1664 -1376 0
v -1664 -1440 0
v -1696 -1440 0
v -1696 -1408 0
v -1664 -1408 0
v -1664 -1472 0
v -1696 -1472 0
v -1696 -1440 0
v -1664 -1440 0
v -1664 -1504 0
v -1696 -1504 0
v -1696 -1472 0
v -1664 -1472 0
v -1664 -1536 0
v -1696 -1536 0
v -1696 -1504 0
v -1664 -1504 0

# Texture cooridinates (Count = 10)
vt 0.8205128 0.7995825
vt 0.8836292 0.7995825
vt 0.8836292 0.8329854
vt 0.8205128 0.8329854
vt 0.8205128 0.7661796
vt 0.8836292 0.7661796
vt 0.8205128 0.7327766
vt 0.8836292 0.7327766
vt 0.8205128 0.6993737
vt 0.8836292 0.6993737

# Normal
vn 0 0 -1

# Mesh description
g Luolanjatkumo1_mesh_0005

# Faces
f 1/1/1 2/2/1 3/3/1 4/4/1
f 5/5/1 6/6/1 7/2/1 8/1/1
f 9/7/1 10/8/1 11/6/1 12/5/1
f 13/9/1 14/10/1 15/8/1 16/7/1
f 17/7/1 18/8/1 19/6/1 20/5/1
f 21/9/1 22/10/1 23/8/1 24/7/1

