# Tiled2Unity generated file. Do not modify by hand.
# Wavefront file for 'cave-entrance-blocked_mesh_0032.obj'

# Vertices (Count = 36)
v -7456 -3680 0
v -7488 -3680 0
v -7488 -3648 0
v -7456 -3648 0
v -7040 -3712 0
v -7072 -3712 0
v -7072 -3680 0
v -7040 -3680 0
v -7072 -3712 0
v -7104 -3712 0
v -7104 -3680 0
v -7072 -3680 0
v -7104 -3712 0
v -7136 -3712 0
v -7136 -3680 0
v -7104 -3680 0
v -7040 -3744 0
v -7072 -3744 0
v -7072 -3712 0
v -7040 -3712 0
v -7072 -3744 0
v -7104 -3744 0
v -7104 -3712 0
v -7072 -3712 0
v -7104 -3744 0
v -7136 -3744 0
v -7136 -3712 0
v -7104 -3712 0
v -7104 -4000 0
v -7136 -4000 0
v -7136 -3968 0
v -7104 -3968 0
v -7104 -4032 0
v -7136 -4032 0
v -7136 -4000 0
v -7104 -4000 0

# Texture cooridinates (Count = 22)
vt 0.65 0.1176471
vt 0.7 0.1176471
vt 0.7 0.1764706
vt 0.65 0.1764706
vt 0.7 0.2941176
vt 0.75 0.2941176
vt 0.75 0.3529412
vt 0.7 0.3529412
vt 0.8 0.2941176
vt 0.8 0.3529412
vt 0.85 0.2941176
vt 0.85 0.3529412
vt 0.7 0.2352941
vt 0.75 0.2352941
vt 0.8 0.2352941
vt 0.85 0.2352941
vt 0.4 0.5294118
vt 0.45 0.5294118
vt 0.45 0.5882353
vt 0.4 0.5882353
vt 0.4 0.4705882
vt 0.45 0.4705882

# Normal
vn 0 0 -1

# Mesh description
g cave-entrance-blocked_mesh_0032

# Faces
f 1/1/1 2/2/1 3/3/1 4/4/1
f 5/5/1 6/6/1 7/7/1 8/8/1
f 9/6/1 10/9/1 11/10/1 12/7/1
f 13/9/1 14/11/1 15/12/1 16/10/1
f 17/13/1 18/14/1 19/6/1 20/5/1
f 21/14/1 22/15/1 23/9/1 24/6/1
f 25/15/1 26/16/1 27/11/1 28/9/1
f 29/17/1 30/18/1 31/19/1 32/20/1
f 33/21/1 34/22/1 35/18/1 36/17/1

