# Tiled2Unity generated file. Do not modify by hand.
# Wavefront file for 'cave-entrance-blocked_mesh_0034.obj'

# Vertices (Count = 72)
v -7104 -3904 0
v -7136 -3904 0
v -7136 -3872 0
v -7104 -3872 0
v -7136 -3904 0
v -7168 -3904 0
v -7168 -3872 0
v -7136 -3872 0
v -7168 -3904 0
v -7200 -3904 0
v -7200 -3872 0
v -7168 -3872 0
v -7104 -3936 0
v -7136 -3936 0
v -7136 -3904 0
v -7104 -3904 0
v -7136 -3936 0
v -7168 -3936 0
v -7168 -3904 0
v -7136 -3904 0
v -7168 -3936 0
v -7200 -3936 0
v -7200 -3904 0
v -7168 -3904 0
v -7488 -3936 0
v -7520 -3936 0
v -7520 -3904 0
v -7488 -3904 0
v -7520 -3936 0
v -7552 -3936 0
v -7552 -3904 0
v -7520 -3904 0
v -7104 -3968 0
v -7136 -3968 0
v -7136 -3936 0
v -7104 -3936 0
v -7136 -3968 0
v -7168 -3968 0
v -7168 -3936 0
v -7136 -3936 0
v -7488 -3968 0
v -7520 -3968 0
v -7520 -3936 0
v -7488 -3936 0
v -7520 -3968 0
v -7552 -3968 0
v -7552 -3936 0
v -7520 -3936 0
v -7520 -4000 0
v -7552 -4000 0
v -7552 -3968 0
v -7520 -3968 0
v -7552 -4000 0
v -7584 -4000 0
v -7584 -3968 0
v -7552 -3968 0
v -7520 -4032 0
v -7552 -4032 0
v -7552 -4000 0
v -7520 -4000 0
v -7552 -4032 0
v -7584 -4032 0
v -7584 -4000 0
v -7552 -4000 0
v -7520 -4064 0
v -7552 -4064 0
v -7552 -4032 0
v -7520 -4032 0
v -7552 -4064 0
v -7584 -4064 0
v -7584 -4032 0
v -7552 -4032 0

# Texture cooridinates (Count = 39)
vt 0.55 0.2941176
vt 0.6 0.2941176
vt 0.6 0.3529412
vt 0.55 0.3529412
vt 0.65 0.2941176
vt 0.65 0.3529412
vt 0.7 0.2941176
vt 0.7 0.3529412
vt 0.55 0.2352941
vt 0.6 0.2352941
vt 0.65 0.2352941
vt 0.7 0.2352941
vt 0.25 0.8823529
vt 0.3 0.8823529
vt 0.3 0.9411765
vt 0.25 0.9411765
vt 0.35 0.8823529
vt 0.35 0.9411765
vt 0.55 0.1764706
vt 0.6 0.1764706
vt 0.65 0.1764706
vt 0.25 0.8235294
vt 0.3 0.8235294
vt 0.35 0.8235294
vt 0.25 0.5294118
vt 0.3 0.5294118
vt 0.3 0.5882353
vt 0.25 0.5882353
vt 0.35 0.5294118
vt 0.35 0.5882353
vt 0.25 0.4705882
vt 0.3 0.4705882
vt 0.35 0.4705882
vt 0.6 0.7058823
vt 0.65 0.7058823
vt 0.65 0.7647059
vt 0.6 0.7647059
vt 0.7 0.7058823
vt 0.7 0.7647059

# Normal
vn 0 0 -1

# Mesh description
g cave-entrance-blocked_mesh_0034

# Faces
f 1/1/1 2/2/1 3/3/1 4/4/1
f 5/2/1 6/5/1 7/6/1 8/3/1
f 9/5/1 10/7/1 11/8/1 12/6/1
f 13/9/1 14/10/1 15/2/1 16/1/1
f 17/10/1 18/11/1 19/5/1 20/2/1
f 21/11/1 22/12/1 23/7/1 24/5/1
f 25/13/1 26/14/1 27/15/1 28/16/1
f 29/14/1 30/17/1 31/18/1 32/15/1
f 33/19/1 34/20/1 35/10/1 36/9/1
f 37/20/1 38/21/1 39/11/1 40/10/1
f 41/22/1 42/23/1 43/14/1 44/13/1
f 45/23/1 46/24/1 47/17/1 48/14/1
f 49/25/1 50/26/1 51/27/1 52/28/1
f 53/26/1 54/29/1 55/30/1 56/27/1
f 57/31/1 58/32/1 59/26/1 60/25/1
f 61/32/1 62/33/1 63/29/1 64/26/1
f 65/34/1 66/35/1 67/36/1 68/37/1
f 69/35/1 70/38/1 71/39/1 72/36/1

