# Tiled2Unity generated file. Do not modify by hand.
# Wavefront file for 'cave-entrance-blocked_mesh_0033.obj'

# Vertices (Count = 168)
v -7232 -3872 0
v -7264 -3872 0
v -7264 -3840 0
v -7232 -3840 0
v -7264 -3872 0
v -7296 -3872 0
v -7296 -3840 0
v -7264 -3840 0
v -7200 -3904 0
v -7232 -3904 0
v -7232 -3872 0
v -7200 -3872 0
v -7232 -3904 0
v -7264 -3904 0
v -7264 -3872 0
v -7232 -3872 0
v -7264 -3904 0
v -7296 -3904 0
v -7296 -3872 0
v -7264 -3872 0
v -6880 -3936 0
v -6912 -3936 0
v -6912 -3904 0
v -6880 -3904 0
v -7264 -3936 0
v -7296 -3936 0
v -7296 -3904 0
v -7264 -3904 0
v -6816 -3968 0
v -6848 -3968 0
v -6848 -3936 0
v -6816 -3936 0
v -6848 -3968 0
v -6880 -3968 0
v -6880 -3936 0
v -6848 -3936 0
v -6880 -3968 0
v -6912 -3968 0
v -6912 -3936 0
v -6880 -3936 0
v -6720 -4000 0
v -6752 -4000 0
v -6752 -3968 0
v -6720 -3968 0
v -6752 -4000 0
v -6784 -4000 0
v -6784 -3968 0
v -6752 -3968 0
v -6784 -4000 0
v -6816 -4000 0
v -6816 -3968 0
v -6784 -3968 0
v -6816 -4000 0
v -6848 -4000 0
v -6848 -3968 0
v -6816 -3968 0
v -6848 -4000 0
v -6880 -4000 0
v -6880 -3968 0
v -6848 -3968 0
v -6880 -4000 0
v -6912 -4000 0
v -6912 -3968 0
v -6880 -3968 0
v -6592 -4128 0
v -6624 -4128 0
v -6624 -4096 0
v -6592 -4096 0
v -8928 -4128 0
v -8960 -4128 0
v -8960 -4096 0
v -8928 -4096 0
v -8960 -4128 0
v -8992 -4128 0
v -8992 -4096 0
v -8960 -4096 0
v -8992 -4128 0
v -9024 -4128 0
v -9024 -4096 0
v -8992 -4096 0
v -8768 -4160 0
v -8800 -4160 0
v -8800 -4128 0
v -8768 -4128 0
v -8800 -4160 0
v -8832 -4160 0
v -8832 -4128 0
v -8800 -4128 0
v -8832 -4160 0
v -8864 -4160 0
v -8864 -4128 0
v -8832 -4128 0
v -8864 -4160 0
v -8896 -4160 0
v -8896 -4128 0
v -8864 -4128 0
v -8896 -4160 0
v -8928 -4160 0
v -8928 -4128 0
v -8896 -4128 0
v -8928 -4160 0
v -8960 -4160 0
v -8960 -4128 0
v -8928 -4128 0
v -8960 -4160 0
v -8992 -4160 0
v -8992 -4128 0
v -8960 -4128 0
v -8992 -4160 0
v -9024 -4160 0
v -9024 -4128 0
v -8992 -4128 0
v -8800 -4192 0
v -8832 -4192 0
v -8832 -4160 0
v -8800 -4160 0
v -8832 -4192 0
v -8864 -4192 0
v -8864 -4160 0
v -8832 -4160 0
v -8864 -4192 0
v -8896 -4192 0
v -8896 -4160 0
v -8864 -4160 0
v -8896 -4192 0
v -8928 -4192 0
v -8928 -4160 0
v -8896 -4160 0
v -8928 -4192 0
v -8960 -4192 0
v -8960 -4160 0
v -8928 -4160 0
v -8960 -4192 0
v -8992 -4192 0
v -8992 -4160 0
v -8960 -4160 0
v -8992 -4192 0
v -9024 -4192 0
v -9024 -4160 0
v -8992 -4160 0
v -8800 -4224 0
v -8832 -4224 0
v -8832 -4192 0
v -8800 -4192 0
v -8832 -4224 0
v -8864 -4224 0
v -8864 -4192 0
v -8832 -4192 0
v -8864 -4224 0
v -8896 -4224 0
v -8896 -4192 0
v -8864 -4192 0
v -6720 -4256 0
v -6752 -4256 0
v -6752 -4224 0
v -6720 -4224 0
v -8800 -4256 0
v -8832 -4256 0
v -8832 -4224 0
v -8800 -4224 0
v -8832 -4256 0
v -8864 -4256 0
v -8864 -4224 0
v -8832 -4224 0
v -8864 -4256 0
v -8896 -4256 0
v -8896 -4224 0
v -8864 -4224 0

# Texture cooridinates (Count = 87)
vt 0.5073529 0.31875
vt 0.5661765 0.31875
vt 0.5661765 0.36875
vt 0.5073529 0.36875
vt 0.625 0.31875
vt 0.625 0.36875
vt 0.7426471 0.56875
vt 0.8014706 0.56875
vt 0.8014706 0.61875
vt 0.7426471 0.61875
vt 0.03676471 0.56875
vt 0.09558824 0.56875
vt 0.09558824 0.61875
vt 0.03676471 0.61875
vt 0.1544118 0.56875
vt 0.1544118 0.61875
vt 0.2720588 0.61875
vt 0.3308823 0.61875
vt 0.3308823 0.66875
vt 0.2720588 0.66875
vt 0.09558824 0.51875
vt 0.1544118 0.51875
vt 0.5661765 0.46875
vt 0.625 0.46875
vt 0.625 0.51875
vt 0.5661765 0.51875
vt 0.2132353 0.56875
vt 0.2720588 0.56875
vt 0.2132353 0.61875
vt 0.3308823 0.56875
vt 0.6838235 0.06875002
vt 0.7426471 0.06875002
vt 0.7426471 0.11875
vt 0.6838235 0.11875
vt 0.1544118 0.36875
vt 0.2132353 0.36875
vt 0.2132353 0.41875
vt 0.1544118 0.41875
vt 0.2720588 0.36875
vt 0.2720588 0.41875
vt 0.3897059 0.36875
vt 0.4485294 0.36875
vt 0.4485294 0.41875
vt 0.3897059 0.41875
vt 0.5073529 0.41875
vt 0.5661765 0.41875
vt 0.3897059 0.56875
vt 0.3897059 0.61875
vt 0.7426471 0.46875
vt 0.8014706 0.46875
vt 0.8014706 0.51875
vt 0.7426471 0.51875
vt 0.8602941 0.46875
vt 0.8602941 0.51875
vt 0.9191176 0.46875
vt 0.9191176 0.51875
vt 0.3897059 0.66875
vt 0.4485294 0.61875
vt 0.4485294 0.66875
vt 0.5073529 0.61875
vt 0.5073529 0.66875
vt 0.5661765 0.61875
vt 0.5661765 0.66875
vt 0.625 0.61875
vt 0.625 0.66875
vt 0.7426471 0.41875
vt 0.8014706 0.41875
vt 0.8602941 0.41875
vt 0.9191176 0.41875
vt 0.4485294 0.56875
vt 0.5073529 0.56875
vt 0.5661765 0.56875
vt 0.625 0.56875
vt 0.7426471 0.36875
vt 0.8014706 0.36875
vt 0.8602941 0.36875
vt 0.9191176 0.36875
vt 0.3897059 0.51875
vt 0.4485294 0.51875
vt 0.5073529 0.51875
vt 0.3308823 0.26875
vt 0.3897059 0.26875
vt 0.3897059 0.31875
vt 0.3308823 0.31875
vt 0.3897059 0.46875
vt 0.4485294 0.46875
vt 0.5073529 0.46875

# Normal
vn 0 0 -1

# Mesh description
g cave-entrance-blocked_mesh_0033

# Faces
f 1/1/1 2/2/1 3/3/1 4/4/1
f 5/2/1 6/5/1 7/6/1 8/3/1
f 9/7/1 10/8/1 11/9/1 12/10/1
f 13/11/1 14/12/1 15/13/1 16/14/1
f 17/12/1 18/15/1 19/16/1 20/13/1
f 21/17/1 22/18/1 23/19/1 24/20/1
f 25/21/1 26/22/1 27/15/1 28/12/1
f 29/23/1 30/24/1 31/25/1 32/26/1
f 33/27/1 34/28/1 35/17/1 36/29/1
f 37/28/1 38/30/1 39/18/1 40/17/1
f 41/31/1 42/32/1 43/33/1 44/34/1
f 45/35/1 46/36/1 47/37/1 48/38/1
f 49/36/1 50/39/1 51/40/1 52/37/1
f 53/41/1 54/42/1 55/43/1 56/44/1
f 57/42/1 58/4/1 59/45/1 60/43/1
f 61/4/1 62/3/1 63/46/1 64/45/1
f 65/30/1 66/47/1 67/48/1 68/18/1
f 69/49/1 70/50/1 71/51/1 72/52/1
f 73/50/1 74/53/1 75/54/1 76/51/1
f 77/53/1 78/55/1 79/56/1 80/54/1
f 81/18/1 82/48/1 83/57/1 84/19/1
f 85/48/1 86/58/1 87/59/1 88/57/1
f 89/58/1 90/60/1 91/61/1 92/59/1
f 93/60/1 94/62/1 95/63/1 96/61/1
f 97/62/1 98/64/1 99/65/1 100/63/1
f 101/66/1 102/67/1 103/50/1 104/49/1
f 105/67/1 106/68/1 107/53/1 108/50/1
f 109/68/1 110/69/1 111/55/1 112/53/1
f 113/47/1 114/70/1 115/58/1 116/48/1
f 117/70/1 118/71/1 119/60/1 120/58/1
f 121/71/1 122/72/1 123/62/1 124/60/1
f 125/72/1 126/73/1 127/64/1 128/62/1
f 129/74/1 130/75/1 131/67/1 132/66/1
f 133/75/1 134/76/1 135/68/1 136/67/1
f 137/76/1 138/77/1 139/69/1 140/68/1
f 141/78/1 142/79/1 143/70/1 144/47/1
f 145/79/1 146/80/1 147/71/1 148/70/1
f 149/80/1 150/26/1 151/72/1 152/71/1
f 153/81/1 154/82/1 155/83/1 156/84/1
f 157/85/1 158/86/1 159/79/1 160/78/1
f 161/86/1 162/87/1 163/80/1 164/79/1
f 165/87/1 166/23/1 167/26/1 168/80/1

