# Tiled2Unity generated file. Do not modify by hand.
# Wavefront file for 'cave-entrance-blocked_mesh_0020.obj'

# Vertices (Count = 16)
v -7552 -3712 0
v -7584 -3712 0
v -7584 -3680 0
v -7552 -3680 0
v -7552 -3744 0
v -7584 -3744 0
v -7584 -3712 0
v -7552 -3712 0
v -7552 -3776 0
v -7584 -3776 0
v -7584 -3744 0
v -7552 -3744 0
v -7552 -3808 0
v -7584 -3808 0
v -7584 -3776 0
v -7552 -3776 0

# Texture cooridinates (Count = 10)
vt 0.5882353 0.5
vt 0.6470588 0.5
vt 0.6470588 0.55
vt 0.5882353 0.55
vt 0.5882353 0.45
vt 0.6470588 0.45
vt 0.5882353 0.4
vt 0.6470588 0.4
vt 0.5882353 0.35
vt 0.6470588 0.35

# Normal
vn 0 0 -1

# Mesh description
g cave-entrance-blocked_mesh_0020

# Faces
f 1/1/1 2/2/1 3/3/1 4/4/1
f 5/5/1 6/6/1 7/2/1 8/1/1
f 9/7/1 10/8/1 11/6/1 12/5/1
f 13/9/1 14/10/1 15/8/1 16/7/1

