# Tiled2Unity generated file. Do not modify by hand.
# Wavefront file for 'cave-entrance_mesh_0013.obj'

# Vertices (Count = 592)
v -8640 -3392 0
v -8672 -3392 0
v -8672 -3360 0
v -8640 -3360 0
v -8672 -3392 0
v -8704 -3392 0
v -8704 -3360 0
v -8672 -3360 0
v -8704 -3392 0
v -8736 -3392 0
v -8736 -3360 0
v -8704 -3360 0
v -9056 -3392 0
v -9088 -3392 0
v -9088 -3360 0
v -9056 -3360 0
v -9088 -3392 0
v -9120 -3392 0
v -9120 -3360 0
v -9088 -3360 0
v -9120 -3392 0
v -9152 -3392 0
v -9152 -3360 0
v -9120 -3360 0
v -9152 -3392 0
v -9184 -3392 0
v -9184 -3360 0
v -9152 -3360 0
v -9184 -3392 0
v -9216 -3392 0
v -9216 -3360 0
v -9184 -3360 0
v -9216 -3392 0
v -9248 -3392 0
v -9248 -3360 0
v -9216 -3360 0
v -9248 -3392 0
v -9280 -3392 0
v -9280 -3360 0
v -9248 -3360 0
v -9280 -3392 0
v -9312 -3392 0
v -9312 -3360 0
v -9280 -3360 0
v -9312 -3392 0
v -9344 -3392 0
v -9344 -3360 0
v -9312 -3360 0
v -9344 -3392 0
v -9376 -3392 0
v -9376 -3360 0
v -9344 -3360 0
v -9376 -3392 0
v -9408 -3392 0
v -9408 -3360 0
v -9376 -3360 0
v -9408 -3392 0
v -9440 -3392 0
v -9440 -3360 0
v -9408 -3360 0
v -9440 -3392 0
v -9472 -3392 0
v -9472 -3360 0
v -9440 -3360 0
v -8640 -3424 0
v -8672 -3424 0
v -8672 -3392 0
v -8640 -3392 0
v -8672 -3424 0
v -8704 -3424 0
v -8704 -3392 0
v -8672 -3392 0
v -8704 -3424 0
v -8736 -3424 0
v -8736 -3392 0
v -8704 -3392 0
v -9120 -3424 0
v -9152 -3424 0
v -9152 -3392 0
v -9120 -3392 0
v -9152 -3424 0
v -9184 -3424 0
v -9184 -3392 0
v -9152 -3392 0
v -9184 -3424 0
v -9216 -3424 0
v -9216 -3392 0
v -9184 -3392 0
v -9216 -3424 0
v -9248 -3424 0
v -9248 -3392 0
v -9216 -3392 0
v -9248 -3424 0
v -9280 -3424 0
v -9280 -3392 0
v -9248 -3392 0
v -9280 -3424 0
v -9312 -3424 0
v -9312 -3392 0
v -9280 -3392 0
v -9312 -3424 0
v -9344 -3424 0
v -9344 -3392 0
v -9312 -3392 0
v -9344 -3424 0
v -9376 -3424 0
v -9376 -3392 0
v -9344 -3392 0
v -9376 -3424 0
v -9408 -3424 0
v -9408 -3392 0
v -9376 -3392 0
v -9408 -3424 0
v -9440 -3424 0
v -9440 -3392 0
v -9408 -3392 0
v -9440 -3424 0
v -9472 -3424 0
v -9472 -3392 0
v -9440 -3392 0
v -8640 -3456 0
v -8672 -3456 0
v -8672 -3424 0
v -8640 -3424 0
v -8672 -3456 0
v -8704 -3456 0
v -8704 -3424 0
v -8672 -3424 0
v -8704 -3456 0
v -8736 -3456 0
v -8736 -3424 0
v -8704 -3424 0
v -9216 -3456 0
v -9248 -3456 0
v -9248 -3424 0
v -9216 -3424 0
v -9248 -3456 0
v -9280 -3456 0
v -9280 -3424 0
v -9248 -3424 0
v -9280 -3456 0
v -9312 -3456 0
v -9312 -3424 0
v -9280 -3424 0
v -9312 -3456 0
v -9344 -3456 0
v -9344 -3424 0
v -9312 -3424 0
v -9344 -3456 0
v -9376 -3456 0
v -9376 -3424 0
v -9344 -3424 0
v -9376 -3456 0
v -9408 -3456 0
v -9408 -3424 0
v -9376 -3424 0
v -9408 -3456 0
v -9440 -3456 0
v -9440 -3424 0
v -9408 -3424 0
v -9440 -3456 0
v -9472 -3456 0
v -9472 -3424 0
v -9440 -3424 0
v -8640 -3488 0
v -8672 -3488 0
v -8672 -3456 0
v -8640 -3456 0
v -8672 -3488 0
v -8704 -3488 0
v -8704 -3456 0
v -8672 -3456 0
v -8704 -3488 0
v -8736 -3488 0
v -8736 -3456 0
v -8704 -3456 0
v -9216 -3488 0
v -9248 -3488 0
v -9248 -3456 0
v -9216 -3456 0
v -9248 -3488 0
v -9280 -3488 0
v -9280 -3456 0
v -9248 -3456 0
v -9280 -3488 0
v -9312 -3488 0
v -9312 -3456 0
v -9280 -3456 0
v -9312 -3488 0
v -9344 -3488 0
v -9344 -3456 0
v -9312 -3456 0
v -9344 -3488 0
v -9376 -3488 0
v -9376 -3456 0
v -9344 -3456 0
v -9376 -3488 0
v -9408 -3488 0
v -9408 -3456 0
v -9376 -3456 0
v -9408 -3488 0
v -9440 -3488 0
v -9440 -3456 0
v -9408 -3456 0
v -9440 -3488 0
v -9472 -3488 0
v -9472 -3456 0
v -9440 -3456 0
v -8640 -3520 0
v -8672 -3520 0
v -8672 -3488 0
v -8640 -3488 0
v -8672 -3520 0
v -8704 -3520 0
v -8704 -3488 0
v -8672 -3488 0
v -8704 -3520 0
v -8736 -3520 0
v -8736 -3488 0
v -8704 -3488 0
v -9248 -3520 0
v -9280 -3520 0
v -9280 -3488 0
v -9248 -3488 0
v -9280 -3520 0
v -9312 -3520 0
v -9312 -3488 0
v -9280 -3488 0
v -9312 -3520 0
v -9344 -3520 0
v -9344 -3488 0
v -9312 -3488 0
v -9344 -3520 0
v -9376 -3520 0
v -9376 -3488 0
v -9344 -3488 0
v -9376 -3520 0
v -9408 -3520 0
v -9408 -3488 0
v -9376 -3488 0
v -9408 -3520 0
v -9440 -3520 0
v -9440 -3488 0
v -9408 -3488 0
v -9440 -3520 0
v -9472 -3520 0
v -9472 -3488 0
v -9440 -3488 0
v -8640 -3552 0
v -8672 -3552 0
v -8672 -3520 0
v -8640 -3520 0
v -8672 -3552 0
v -8704 -3552 0
v -8704 -3520 0
v -8672 -3520 0
v -8704 -3552 0
v -8736 -3552 0
v -8736 -3520 0
v -8704 -3520 0
v -9280 -3552 0
v -9312 -3552 0
v -9312 -3520 0
v -9280 -3520 0
v -9312 -3552 0
v -9344 -3552 0
v -9344 -3520 0
v -9312 -3520 0
v -9344 -3552 0
v -9376 -3552 0
v -9376 -3520 0
v -9344 -3520 0
v -9376 -3552 0
v -9408 -3552 0
v -9408 -3520 0
v -9376 -3520 0
v -9408 -3552 0
v -9440 -3552 0
v -9440 -3520 0
v -9408 -3520 0
v -9440 -3552 0
v -9472 -3552 0
v -9472 -3520 0
v -9440 -3520 0
v -8640 -3584 0
v -8672 -3584 0
v -8672 -3552 0
v -8640 -3552 0
v -8672 -3584 0
v -8704 -3584 0
v -8704 -3552 0
v -8672 -3552 0
v -8704 -3584 0
v -8736 -3584 0
v -8736 -3552 0
v -8704 -3552 0
v -9056 -3584 0
v -9088 -3584 0
v -9088 -3552 0
v -9056 -3552 0
v -9088 -3584 0
v -9120 -3584 0
v -9120 -3552 0
v -9088 -3552 0
v -9312 -3584 0
v -9344 -3584 0
v -9344 -3552 0
v -9312 -3552 0
v -9344 -3584 0
v -9376 -3584 0
v -9376 -3552 0
v -9344 -3552 0
v -9376 -3584 0
v -9408 -3584 0
v -9408 -3552 0
v -9376 -3552 0
v -9408 -3584 0
v -9440 -3584 0
v -9440 -3552 0
v -9408 -3552 0
v -9440 -3584 0
v -9472 -3584 0
v -9472 -3552 0
v -9440 -3552 0
v -8640 -3616 0
v -8672 -3616 0
v -8672 -3584 0
v -8640 -3584 0
v -8672 -3616 0
v -8704 -3616 0
v -8704 -3584 0
v -8672 -3584 0
v -8704 -3616 0
v -8736 -3616 0
v -8736 -3584 0
v -8704 -3584 0
v -9056 -3616 0
v -9088 -3616 0
v -9088 -3584 0
v -9056 -3584 0
v -9088 -3616 0
v -9120 -3616 0
v -9120 -3584 0
v -9088 -3584 0
v -9120 -3616 0
v -9152 -3616 0
v -9152 -3584 0
v -9120 -3584 0
v -9312 -3616 0
v -9344 -3616 0
v -9344 -3584 0
v -9312 -3584 0
v -9344 -3616 0
v -9376 -3616 0
v -9376 -3584 0
v -9344 -3584 0
v -9376 -3616 0
v -9408 -3616 0
v -9408 -3584 0
v -9376 -3584 0
v -9408 -3616 0
v -9440 -3616 0
v -9440 -3584 0
v -9408 -3584 0
v -9440 -3616 0
v -9472 -3616 0
v -9472 -3584 0
v -9440 -3584 0
v -8640 -3648 0
v -8672 -3648 0
v -8672 -3616 0
v -8640 -3616 0
v -8672 -3648 0
v -8704 -3648 0
v -8704 -3616 0
v -8672 -3616 0
v -8704 -3648 0
v -8736 -3648 0
v -8736 -3616 0
v -8704 -3616 0
v -9280 -3648 0
v -9312 -3648 0
v -9312 -3616 0
v -9280 -3616 0
v -9312 -3648 0
v -9344 -3648 0
v -9344 -3616 0
v -9312 -3616 0
v -9344 -3648 0
v -9376 -3648 0
v -9376 -3616 0
v -9344 -3616 0
v -9376 -3648 0
v -9408 -3648 0
v -9408 -3616 0
v -9376 -3616 0
v -9408 -3648 0
v -9440 -3648 0
v -9440 -3616 0
v -9408 -3616 0
v -9440 -3648 0
v -9472 -3648 0
v -9472 -3616 0
v -9440 -3616 0
v -8640 -3680 0
v -8672 -3680 0
v -8672 -3648 0
v -8640 -3648 0
v -8672 -3680 0
v -8704 -3680 0
v -8704 -3648 0
v -8672 -3648 0
v -8704 -3680 0
v -8736 -3680 0
v -8736 -3648 0
v -8704 -3648 0
v -9280 -3680 0
v -9312 -3680 0
v -9312 -3648 0
v -9280 -3648 0
v -9312 -3680 0
v -9344 -3680 0
v -9344 -3648 0
v -9312 -3648 0
v -9344 -3680 0
v -9376 -3680 0
v -9376 -3648 0
v -9344 -3648 0
v -9376 -3680 0
v -9408 -3680 0
v -9408 -3648 0
v -9376 -3648 0
v -9408 -3680 0
v -9440 -3680 0
v -9440 -3648 0
v -9408 -3648 0
v -9440 -3680 0
v -9472 -3680 0
v -9472 -3648 0
v -9440 -3648 0
v -8640 -3712 0
v -8672 -3712 0
v -8672 -3680 0
v -8640 -3680 0
v -8672 -3712 0
v -8704 -3712 0
v -8704 -3680 0
v -8672 -3680 0
v -8704 -3712 0
v -8736 -3712 0
v -8736 -3680 0
v -8704 -3680 0
v -9248 -3712 0
v -9280 -3712 0
v -9280 -3680 0
v -9248 -3680 0
v -9280 -3712 0
v -9312 -3712 0
v -9312 -3680 0
v -9280 -3680 0
v -9312 -3712 0
v -9344 -3712 0
v -9344 -3680 0
v -9312 -3680 0
v -9344 -3712 0
v -9376 -3712 0
v -9376 -3680 0
v -9344 -3680 0
v -9376 -3712 0
v -9408 -3712 0
v -9408 -3680 0
v -9376 -3680 0
v -9408 -3712 0
v -9440 -3712 0
v -9440 -3680 0
v -9408 -3680 0
v -9440 -3712 0
v -9472 -3712 0
v -9472 -3680 0
v -9440 -3680 0
v -8640 -3744 0
v -8672 -3744 0
v -8672 -3712 0
v -8640 -3712 0
v -8672 -3744 0
v -8704 -3744 0
v -8704 -3712 0
v -8672 -3712 0
v -8704 -3744 0
v -8736 -3744 0
v -8736 -3712 0
v -8704 -3712 0
v -9248 -3744 0
v -9280 -3744 0
v -9280 -3712 0
v -9248 -3712 0
v -9280 -3744 0
v -9312 -3744 0
v -9312 -3712 0
v -9280 -3712 0
v -9312 -3744 0
v -9344 -3744 0
v -9344 -3712 0
v -9312 -3712 0
v -9344 -3744 0
v -9376 -3744 0
v -9376 -3712 0
v -9344 -3712 0
v -9376 -3744 0
v -9408 -3744 0
v -9408 -3712 0
v -9376 -3712 0
v -9408 -3744 0
v -9440 -3744 0
v -9440 -3712 0
v -9408 -3712 0
v -9440 -3744 0
v -9472 -3744 0
v -9472 -3712 0
v -9440 -3712 0
v -8640 -3776 0
v -8672 -3776 0
v -8672 -3744 0
v -8640 -3744 0
v -8672 -3776 0
v -8704 -3776 0
v -8704 -3744 0
v -8672 -3744 0
v -8704 -3776 0
v -8736 -3776 0
v -8736 -3744 0
v -8704 -3744 0
v -9280 -3776 0
v -9312 -3776 0
v -9312 -3744 0
v -9280 -3744 0
v -8640 -3808 0
v -8672 -3808 0
v -8672 -3776 0
v -8640 -3776 0
v -8672 -3808 0
v -8704 -3808 0
v -8704 -3776 0
v -8672 -3776 0
v -8704 -3808 0
v -8736 -3808 0
v -8736 -3776 0
v -8704 -3776 0
v -9344 -3808 0
v -9376 -3808 0
v -9376 -3776 0
v -9344 -3776 0
v -9376 -3808 0
v -9408 -3808 0
v -9408 -3776 0
v -9376 -3776 0
v -9408 -3808 0
v -9440 -3808 0
v -9440 -3776 0
v -9408 -3776 0
v -9440 -3808 0
v -9472 -3808 0
v -9472 -3776 0
v -9440 -3776 0
v -8640 -3840 0
v -8672 -3840 0
v -8672 -3808 0
v -8640 -3808 0
v -8672 -3840 0
v -8704 -3840 0
v -8704 -3808 0
v -8672 -3808 0
v -8704 -3840 0
v -8736 -3840 0
v -8736 -3808 0
v -8704 -3808 0
v -9440 -3840 0
v -9472 -3840 0
v -9472 -3808 0
v -9440 -3808 0
v -8640 -3872 0
v -8672 -3872 0
v -8672 -3840 0
v -8640 -3840 0
v -8672 -3872 0
v -8704 -3872 0
v -8704 -3840 0
v -8672 -3840 0
v -8704 -3872 0
v -8736 -3872 0
v -8736 -3840 0
v -8704 -3840 0

# Texture cooridinates (Count = 210)
vt 0 0.9375
vt 0.03333334 0.9375
vt 0.03333334 1
vt 0 1
vt 0.06666667 0.9375
vt 0.06666667 1
vt 0.1 0.9375
vt 0.1 1
vt 0.4333333 0.9375
vt 0.4666667 0.9375
vt 0.4666667 1
vt 0.4333333 1
vt 0.5 0.9375
vt 0.5 1
vt 0.5333334 0.9375
vt 0.5333334 1
vt 0.5666667 0.9375
vt 0.5666667 1
vt 0.6 0.9375
vt 0.6 1
vt 0.6333333 0.9375
vt 0.6333333 1
vt 0.6666667 0.9375
vt 0.6666667 1
vt 0.7 0.9375
vt 0.7 1
vt 0.7333333 0.9375
vt 0.7333333 1
vt 0.7666667 0.9375
vt 0.7666667 1
vt 0.8 0.9375
vt 0.8 1
vt 0.8333333 0.9375
vt 0.8333333 1
vt 0.8666667 0.9375
vt 0.8666667 1
vt 0 0.875
vt 0.03333334 0.875
vt 0.06666667 0.875
vt 0.1 0.875
vt 0.5 0.875
vt 0.5333334 0.875
vt 0.5666667 0.875
vt 0.6 0.875
vt 0.6333333 0.875
vt 0.6666667 0.875
vt 0.7 0.875
vt 0.7333333 0.875
vt 0.7666667 0.875
vt 0.8 0.875
vt 0.8333333 0.875
vt 0.8666667 0.875
vt 0 0.8125
vt 0.03333334 0.8125
vt 0.06666667 0.8125
vt 0.1 0.8125
vt 0.6 0.8125
vt 0.6333333 0.8125
vt 0.6666667 0.8125
vt 0.7 0.8125
vt 0.7333333 0.8125
vt 0.7666667 0.8125
vt 0.8 0.8125
vt 0.8333333 0.8125
vt 0.8666667 0.8125
vt 0 0.75
vt 0.03333334 0.75
vt 0.06666667 0.75
vt 0.1 0.75
vt 0.6 0.75
vt 0.6333333 0.75
vt 0.6666667 0.75
vt 0.7 0.75
vt 0.7333333 0.75
vt 0.7666667 0.75
vt 0.8 0.75
vt 0.8333333 0.75
vt 0.8666667 0.75
vt 0 0.6875
vt 0.03333334 0.6875
vt 0.06666667 0.6875
vt 0.1 0.6875
vt 0.6333333 0.6875
vt 0.6666667 0.6875
vt 0.7 0.6875
vt 0.7333333 0.6875
vt 0.7666667 0.6875
vt 0.8 0.6875
vt 0.8333333 0.6875
vt 0.8666667 0.6875
vt 0 0.625
vt 0.03333334 0.625
vt 0.06666667 0.625
vt 0.1 0.625
vt 0.6666667 0.625
vt 0.7 0.625
vt 0.7333333 0.625
vt 0.7666667 0.625
vt 0.8 0.625
vt 0.8333333 0.625
vt 0.8666667 0.625
vt 0 0.5625
vt 0.03333334 0.5625
vt 0.06666667 0.5625
vt 0.1 0.5625
vt 0.4333333 0.5625
vt 0.4666667 0.5625
vt 0.4666667 0.625
vt 0.4333333 0.625
vt 0.5 0.5625
vt 0.5 0.625
vt 0.7 0.5625
vt 0.7333333 0.5625
vt 0.7666667 0.5625
vt 0.8 0.5625
vt 0.8333333 0.5625
vt 0.8666667 0.5625
vt 0 0.5
vt 0.03333334 0.5
vt 0.06666667 0.5
vt 0.1 0.5
vt 0.4333333 0.5
vt 0.4666667 0.5
vt 0.5 0.5
vt 0.5333334 0.5
vt 0.5333334 0.5625
vt 0.7 0.5
vt 0.7333333 0.5
vt 0.7666667 0.5
vt 0.8 0.5
vt 0.8333333 0.5
vt 0.8666667 0.5
vt 0 0.4375
vt 0.03333334 0.4375
vt 0.06666667 0.4375
vt 0.1 0.4375
vt 0.6666667 0.4375
vt 0.7 0.4375
vt 0.6666667 0.5
vt 0.7333333 0.4375
vt 0.7666667 0.4375
vt 0.8 0.4375
vt 0.8333333 0.4375
vt 0.8666667 0.4375
vt 0 0.375
vt 0.03333334 0.375
vt 0.06666667 0.375
vt 0.1 0.375
vt 0.6666667 0.375
vt 0.7 0.375
vt 0.7333333 0.375
vt 0.7666667 0.375
vt 0.8 0.375
vt 0.8333333 0.375
vt 0.8666667 0.375
vt 0 0.3125
vt 0.03333334 0.3125
vt 0.06666667 0.3125
vt 0.1 0.3125
vt 0.6333333 0.3125
vt 0.6666667 0.3125
vt 0.6333333 0.375
vt 0.7 0.3125
vt 0.7333333 0.3125
vt 0.7666667 0.3125
vt 0.8 0.3125
vt 0.8333333 0.3125
vt 0.8666667 0.3125
vt 0 0.25
vt 0.03333334 0.25
vt 0.06666667 0.25
vt 0.1 0.25
vt 0.6333333 0.25
vt 0.6666667 0.25
vt 0.7 0.25
vt 0.7333333 0.25
vt 0.7666667 0.25
vt 0.8 0.25
vt 0.8333333 0.25
vt 0.8666667 0.25
vt 0 0.1875
vt 0.03333334 0.1875
vt 0.06666667 0.1875
vt 0.1 0.1875
vt 0.6666667 0.1875
vt 0.7 0.1875
vt 0 0.125
vt 0.03333334 0.125
vt 0.06666667 0.125
vt 0.1 0.125
vt 0.7333333 0.125
vt 0.7666667 0.125
vt 0.7666667 0.1875
vt 0.7333333 0.1875
vt 0.8 0.125
vt 0.8 0.1875
vt 0.8333333 0.125
vt 0.8333333 0.1875
vt 0.8666667 0.125
vt 0.8666667 0.1875
vt 0 0.0625
vt 0.03333334 0.0625
vt 0.06666667 0.0625
vt 0.1 0.0625
vt 0.8333333 0.0625
vt 0.8666667 0.0625
vt 0 0
vt 0.03333334 0
vt 0.06666667 0
vt 0.1 0

# Normal
vn 0 0 -1

# Mesh description
g cave-entrance_mesh_0013

# Faces
f 1/1/1 2/2/1 3/3/1 4/4/1
f 5/2/1 6/5/1 7/6/1 8/3/1
f 9/5/1 10/7/1 11/8/1 12/6/1
f 13/9/1 14/10/1 15/11/1 16/12/1
f 17/10/1 18/13/1 19/14/1 20/11/1
f 21/13/1 22/15/1 23/16/1 24/14/1
f 25/15/1 26/17/1 27/18/1 28/16/1
f 29/17/1 30/19/1 31/20/1 32/18/1
f 33/19/1 34/21/1 35/22/1 36/20/1
f 37/21/1 38/23/1 39/24/1 40/22/1
f 41/23/1 42/25/1 43/26/1 44/24/1
f 45/25/1 46/27/1 47/28/1 48/26/1
f 49/27/1 50/29/1 51/30/1 52/28/1
f 53/29/1 54/31/1 55/32/1 56/30/1
f 57/31/1 58/33/1 59/34/1 60/32/1
f 61/33/1 62/35/1 63/36/1 64/34/1
f 65/37/1 66/38/1 67/2/1 68/1/1
f 69/38/1 70/39/1 71/5/1 72/2/1
f 73/39/1 74/40/1 75/7/1 76/5/1
f 77/41/1 78/42/1 79/15/1 80/13/1
f 81/42/1 82/43/1 83/17/1 84/15/1
f 85/43/1 86/44/1 87/19/1 88/17/1
f 89/44/1 90/45/1 91/21/1 92/19/1
f 93/45/1 94/46/1 95/23/1 96/21/1
f 97/46/1 98/47/1 99/25/1 100/23/1
f 101/47/1 102/48/1 103/27/1 104/25/1
f 105/48/1 106/49/1 107/29/1 108/27/1
f 109/49/1 110/50/1 111/31/1 112/29/1
f 113/50/1 114/51/1 115/33/1 116/31/1
f 117/51/1 118/52/1 119/35/1 120/33/1
f 121/53/1 122/54/1 123/38/1 124/37/1
f 125/54/1 126/55/1 127/39/1 128/38/1
f 129/55/1 130/56/1 131/40/1 132/39/1
f 133/57/1 134/58/1 135/45/1 136/44/1
f 137/58/1 138/59/1 139/46/1 140/45/1
f 141/59/1 142/60/1 143/47/1 144/46/1
f 145/60/1 146/61/1 147/48/1 148/47/1
f 149/61/1 150/62/1 151/49/1 152/48/1
f 153/62/1 154/63/1 155/50/1 156/49/1
f 157/63/1 158/64/1 159/51/1 160/50/1
f 161/64/1 162/65/1 163/52/1 164/51/1
f 165/66/1 166/67/1 167/54/1 168/53/1
f 169/67/1 170/68/1 171/55/1 172/54/1
f 173/68/1 174/69/1 175/56/1 176/55/1
f 177/70/1 178/71/1 179/58/1 180/57/1
f 181/71/1 182/72/1 183/59/1 184/58/1
f 185/72/1 186/73/1 187/60/1 188/59/1
f 189/73/1 190/74/1 191/61/1 192/60/1
f 193/74/1 194/75/1 195/62/1 196/61/1
f 197/75/1 198/76/1 199/63/1 200/62/1
f 201/76/1 202/77/1 203/64/1 204/63/1
f 205/77/1 206/78/1 207/65/1 208/64/1
f 209/79/1 210/80/1 211/67/1 212/66/1
f 213/80/1 214/81/1 215/68/1 216/67/1
f 217/81/1 218/82/1 219/69/1 220/68/1
f 221/83/1 222/84/1 223/72/1 224/71/1
f 225/84/1 226/85/1 227/73/1 228/72/1
f 229/85/1 230/86/1 231/74/1 232/73/1
f 233/86/1 234/87/1 235/75/1 236/74/1
f 237/87/1 238/88/1 239/76/1 240/75/1
f 241/88/1 242/89/1 243/77/1 244/76/1
f 245/89/1 246/90/1 247/78/1 248/77/1
f 249/91/1 250/92/1 251/80/1 252/79/1
f 253/92/1 254/93/1 255/81/1 256/80/1
f 257/93/1 258/94/1 259/82/1 260/81/1
f 261/95/1 262/96/1 263/85/1 264/84/1
f 265/96/1 266/97/1 267/86/1 268/85/1
f 269/97/1 270/98/1 271/87/1 272/86/1
f 273/98/1 274/99/1 275/88/1 276/87/1
f 277/99/1 278/100/1 279/89/1 280/88/1
f 281/100/1 282/101/1 283/90/1 284/89/1
f 285/102/1 286/103/1 287/92/1 288/91/1
f 289/103/1 290/104/1 291/93/1 292/92/1
f 293/104/1 294/105/1 295/94/1 296/93/1
f 297/106/1 298/107/1 299/108/1 300/109/1
f 301/107/1 302/110/1 303/111/1 304/108/1
f 305/112/1 306/113/1 307/97/1 308/96/1
f 309/113/1 310/114/1 311/98/1 312/97/1
f 313/114/1 314/115/1 315/99/1 316/98/1
f 317/115/1 318/116/1 319/100/1 320/99/1
f 321/116/1 322/117/1 323/101/1 324/100/1
f 325/118/1 326/119/1 327/103/1 328/102/1
f 329/119/1 330/120/1 331/104/1 332/103/1
f 333/120/1 334/121/1 335/105/1 336/104/1
f 337/122/1 338/123/1 339/107/1 340/106/1
f 341/123/1 342/124/1 343/110/1 344/107/1
f 345/124/1 346/125/1 347/126/1 348/110/1
f 349/127/1 350/128/1 351/113/1 352/112/1
f 353/128/1 354/129/1 355/114/1 356/113/1
f 357/129/1 358/130/1 359/115/1 360/114/1
f 361/130/1 362/131/1 363/116/1 364/115/1
f 365/131/1 366/132/1 367/117/1 368/116/1
f 369/133/1 370/134/1 371/119/1 372/118/1
f 373/134/1 374/135/1 375/120/1 376/119/1
f 377/135/1 378/136/1 379/121/1 380/120/1
f 381/137/1 382/138/1 383/127/1 384/139/1
f 385/138/1 386/140/1 387/128/1 388/127/1
f 389/140/1 390/141/1 391/129/1 392/128/1
f 393/141/1 394/142/1 395/130/1 396/129/1
f 397/142/1 398/143/1 399/131/1 400/130/1
f 401/143/1 402/144/1 403/132/1 404/131/1
f 405/145/1 406/146/1 407/134/1 408/133/1
f 409/146/1 410/147/1 411/135/1 412/134/1
f 413/147/1 414/148/1 415/136/1 416/135/1
f 417/149/1 418/150/1 419/138/1 420/137/1
f 421/150/1 422/151/1 423/140/1 424/138/1
f 425/151/1 426/152/1 427/141/1 428/140/1
f 429/152/1 430/153/1 431/142/1 432/141/1
f 433/153/1 434/154/1 435/143/1 436/142/1
f 437/154/1 438/155/1 439/144/1 440/143/1
f 441/156/1 442/157/1 443/146/1 444/145/1
f 445/157/1 446/158/1 447/147/1 448/146/1
f 449/158/1 450/159/1 451/148/1 452/147/1
f 453/160/1 454/161/1 455/149/1 456/162/1
f 457/161/1 458/163/1 459/150/1 460/149/1
f 461/163/1 462/164/1 463/151/1 464/150/1
f 465/164/1 466/165/1 467/152/1 468/151/1
f 469/165/1 470/166/1 471/153/1 472/152/1
f 473/166/1 474/167/1 475/154/1 476/153/1
f 477/167/1 478/168/1 479/155/1 480/154/1
f 481/169/1 482/170/1 483/157/1 484/156/1
f 485/170/1 486/171/1 487/158/1 488/157/1
f 489/171/1 490/172/1 491/159/1 492/158/1
f 493/173/1 494/174/1 495/161/1 496/160/1
f 497/174/1 498/175/1 499/163/1 500/161/1
f 501/175/1 502/176/1 503/164/1 504/163/1
f 505/176/1 506/177/1 507/165/1 508/164/1
f 509/177/1 510/178/1 511/166/1 512/165/1
f 513/178/1 514/179/1 515/167/1 516/166/1
f 517/179/1 518/180/1 519/168/1 520/167/1
f 521/181/1 522/182/1 523/170/1 524/169/1
f 525/182/1 526/183/1 527/171/1 528/170/1
f 529/183/1 530/184/1 531/172/1 532/171/1
f 533/185/1 534/186/1 535/175/1 536/174/1
f 537/187/1 538/188/1 539/182/1 540/181/1
f 541/188/1 542/189/1 543/183/1 544/182/1
f 545/189/1 546/190/1 547/184/1 548/183/1
f 549/191/1 550/192/1 551/193/1 552/194/1
f 553/192/1 554/195/1 555/196/1 556/193/1
f 557/195/1 558/197/1 559/198/1 560/196/1
f 561/197/1 562/199/1 563/200/1 564/198/1
f 565/201/1 566/202/1 567/188/1 568/187/1
f 569/202/1 570/203/1 571/189/1 572/188/1
f 573/203/1 574/204/1 575/190/1 576/189/1
f 577/205/1 578/206/1 579/199/1 580/197/1
f 581/207/1 582/208/1 583/202/1 584/201/1
f 585/208/1 586/209/1 587/203/1 588/202/1
f 589/209/1 590/210/1 591/204/1 592/203/1

